<svg id="Camada_1" data-name="Camada 1" xmlns="http://www.w3.org/2000/svg" viewBox="0 0 1920 804.62"><defs><style>.cls-1{fill:#221e3d;}</style></defs><path class="cls-1" d="M1915.3,703a32.36,32.36,0,1,1-16.3-42.78A32.36,32.36,0,0,1,1915.3,703Zm-2.25-1a29.71,29.71,0,0,0,1.83-19,52,52,0,0,1-13.5,2.27,64.4,64.4,0,0,1-5.11,20.42,47.72,47.72,0,0,0,16.64-3.37,1.7,1.7,0,0,0,.14-.33Zm-37,16a30.1,30.1,0,0,0,8.4,1.6,53.53,53.53,0,0,0,8-11.51,64.15,64.15,0,0,1-19.53-3.79A52.41,52.41,0,0,0,1876,718Zm0-39.74a61.26,61.26,0,0,0,23,4.53,47.31,47.31,0,0,0-3.7-21.37,29.22,29.22,0,0,0-8.18-1.54A47.85,47.85,0,0,0,1876,678.3Zm-.77,2.35a61.66,61.66,0,0,0-2.59,21,61.7,61.7,0,0,0,20.89,4.06,61.81,61.81,0,0,0,5.34-20.41,64,64,0,0,1-23.67-4.67Zm23.32-17.88a50.78,50.78,0,0,1,2.94,20,49,49,0,0,0,12.71-2.17,29.77,29.77,0,0,0-15.68-17.82Zm-35.81,7.94a54.21,54.21,0,0,0,11,6.64,51.58,51.58,0,0,1,10-17.37,30,30,0,0,0-21,10.74Zm-4.26,6.83a29.8,29.8,0,0,0-2.56,14.12,53.45,53.45,0,0,0,14.21,9A64.61,64.61,0,0,1,1873,679.7a56,56,0,0,1-11.68-7,29.19,29.19,0,0,0-2.81,4.84ZM1873,716.79a55.94,55.94,0,0,1-2.68-13.43c-.6-.25-1.21-.5-1.79-.76a56.26,56.26,0,0,1-12.11-7.35A29.9,29.9,0,0,0,1873,716.79Zm38.14-11.17a52.4,52.4,0,0,1-16,2.56,56.66,56.66,0,0,1-7.38,11.43A30,30,0,0,0,1911.14,705.62Z"/><path class="cls-1" d="M1795.88,774.78a24.8,24.8,0,1,1-20-28.79h0A24.83,24.83,0,0,1,1795.88,774.78Zm-1.86-.33a22.83,22.83,0,0,0-2.17-14.48,40.16,40.16,0,0,1-9.62,4.19,49.06,49.06,0,0,1,0,16.13A36.24,36.24,0,0,0,1794,774.7a1.06,1.06,0,0,0,0-.25Zm-24.55,18.78a22.78,22.78,0,0,0,6.54-.37,39.75,39.75,0,0,0,3.77-10,48.93,48.93,0,0,1-15.22.8,40.1,40.1,0,0,0,4.91,9.57Zm-7.39-29.54a47,47,0,0,0,18-.91,36.13,36.13,0,0,0-6.72-15.2,22.61,22.61,0,0,0-6.36.37A36.84,36.84,0,0,0,1762.08,763.69Zm-.08,1.93a47.11,47.11,0,0,0,2,16.09,47.41,47.41,0,0,0,16.28-.87,47.15,47.15,0,0,0,.18-16.16A49,49,0,0,1,1762,765.62ZM1776,748a39,39,0,0,1,5.89,14.34,37.61,37.61,0,0,0,9.06-4A22.92,22.92,0,0,0,1776,748Zm-25.15,12.56a41.69,41.69,0,0,0,9.39,2.9,39.54,39.54,0,0,1,4.2-14.77,23,23,0,0,0-13.62,11.83Zm-1.9,5.86a22.67,22.67,0,0,0,.72,11,40.38,40.38,0,0,0,12.23,4,49.18,49.18,0,0,1-1.8-16.1,43.31,43.31,0,0,1-10-3.06,22.56,22.56,0,0,0-1.18,4.12Zm18,26.5a42.93,42.93,0,0,1-4.49-9.49l-1.47-.23a42.87,42.87,0,0,1-10.37-3.22,22.9,22.9,0,0,0,16.38,12.9Zm26.29-15.4a40.5,40.5,0,0,1-11.44,4.89,43.48,43.48,0,0,1-3.36,9.86,23,23,0,0,0,14.82-14.79Z"/><path class="cls-1" d="M1478.49,840.74a31.41,31.41,0,1,1-24.4-37.12h0A31.46,31.46,0,0,1,1478.49,840.74Zm-2.35-.49a28.8,28.8,0,0,0-2.25-18.41,50.35,50.35,0,0,1-12.32,5,62.56,62.56,0,0,1-.56,20.43,46.3,46.3,0,0,0,15.06-6.68C1476.09,840.47,1476.12,840.36,1476.14,840.25Zm-31.72,22.94a28.8,28.8,0,0,0,8.29-.24,51.17,51.17,0,0,0,5.12-12.58,62.17,62.17,0,0,1-19.3.5A50.76,50.76,0,0,0,1444.42,863.19Zm-8.35-37.65a59.65,59.65,0,0,0,22.79-.54,45.84,45.84,0,0,0-8-19.48,28.71,28.71,0,0,0-8.07.26,46.42,46.42,0,0,0-6.72,19.76Zm-.23,2.38a60,60,0,0,0,1.94,20.44,59.7,59.7,0,0,0,20.65-.54,59.8,59.8,0,0,0,.78-20.45,62.08,62.08,0,0,1-23.37.55Zm18.36-21.83a49.36,49.36,0,0,1,7,18.36,48,48,0,0,0,11.6-4.72,29,29,0,0,0-18.6-13.64Zm-32.28,15a51.81,51.81,0,0,0,11.8,4,50.38,50.38,0,0,1,5.81-18.55,29.11,29.11,0,0,0-17.61,14.58Zm-2.6,7.36a28.78,28.78,0,0,0,.53,13.92,51.58,51.58,0,0,0,15.34,5.54,62.89,62.89,0,0,1-1.72-20.45,54.55,54.55,0,0,1-12.55-4.22,28.07,28.07,0,0,0-1.6,5.24Zm21.94,34.17a54.13,54.13,0,0,1-5.35-12.17l-1.86-.34a54.42,54.42,0,0,1-13-4.44A29,29,0,0,0,1441.26,862.62ZM1475.08,844a51,51,0,0,1-14.66,5.79,54.62,54.62,0,0,1-4.59,12.37,29.09,29.09,0,0,0,19.25-18.13Z"/><path class="cls-1" d="M1537.19,743.26a21.2,21.2,0,1,1-24.28-17.59A21.2,21.2,0,0,1,1537.19,743.26Zm-1.59.25a19.55,19.55,0,0,0-5.84-11.08,33.42,33.42,0,0,1-6.58,6.1,42,42,0,0,1,4.54,13,31.07,31.07,0,0,0,7.9-7.82A1.36,1.36,0,0,0,1535.6,743.51Zm-14.53,22.11a19.65,19.65,0,0,0,5.17-2.13,34.35,34.35,0,0,0,.22-9.17,41.91,41.91,0,0,1-12.06,4.94A34.37,34.37,0,0,0,1521.07,765.62Zm-14.28-21.76a40.51,40.51,0,0,0,14.25-5.79,30.92,30.92,0,0,0-9.71-10.38,19.26,19.26,0,0,0-5,2.09,31.41,31.41,0,0,0,.46,14Zm.42,1.56a40.49,40.49,0,0,0,6.12,12.43,40.3,40.3,0,0,0,12.9-5.28,40.72,40.72,0,0,0-4.4-13.1,42.17,42.17,0,0,1-14.62,5.91Zm6.35-18.17a33.26,33.26,0,0,1,8.8,9.91,31.86,31.86,0,0,0,6.19-5.75,19.51,19.51,0,0,0-15-4.2Zm-16.76,17.17a35.79,35.79,0,0,0,8.4-.3,33.89,33.89,0,0,1-.78-13.11A19.68,19.68,0,0,0,1496.8,744.42Zm.11,5.27a19.58,19.58,0,0,0,3.67,8.66,35,35,0,0,0,11-.18,42.49,42.49,0,0,1-6-12.49,37.08,37.08,0,0,1-8.93.34,19.59,19.59,0,0,0,.26,3.67Zm22,16.31a37,37,0,0,1-6.3-6.4l-1.25.23a36.42,36.42,0,0,1-9.27.32A19.58,19.58,0,0,0,1519,766Zm16.88-19.83a34.12,34.12,0,0,1-7.86,7.16,36.89,36.89,0,0,1,.07,8.91,19.64,19.64,0,0,0,7.83-16.07Z"/><path class="cls-1" d="M1767,586.41a34.08,34.08,0,1,1-19.39-44.12h0A34.11,34.11,0,0,1,1767,586.41Zm-2.42-.94a31.26,31.26,0,0,0,.91-20.1,54.67,54.67,0,0,1-14.07,3.1,67.73,67.73,0,0,1-4.3,21.75,50,50,0,0,0,17.32-4.42c0-.11.08-.18.12-.33Zm-38.08,18.81a31.22,31.22,0,0,0,8.91,1.23,55.19,55.19,0,0,0,7.75-12.52,67.73,67.73,0,0,1-20.73-3,55.16,55.16,0,0,0,4,14.29Zm-2.13-41.79a64.41,64.41,0,0,0,24.47,3.54,49.83,49.83,0,0,0-5-22.28,31.07,31.07,0,0,0-8.68-1.18,50.27,50.27,0,0,0-10.81,19.92Zm-.68,2.51a65.2,65.2,0,0,0-1.61,22.22,65.2,65.2,0,0,0,22.18,3.15,65.11,65.11,0,0,0,4.54-21.74,67.48,67.48,0,0,1-25.13-3.63Zm23.58-20a53.57,53.57,0,0,1,4.15,20.9,51.46,51.46,0,0,0,13.25-3A31.37,31.37,0,0,0,1747.25,545ZM1710,555.21a57.15,57.15,0,0,0,11.9,6.41,54.76,54.76,0,0,1,9.57-18.81A31.63,31.63,0,0,0,1710,555.21Zm-4.11,7.4a31.1,31.1,0,0,0-2,15,55.74,55.74,0,0,0,15.42,8.69,67.61,67.61,0,0,1,1.85-22.18,59.62,59.62,0,0,1-12.67-6.78,30.4,30.4,0,0,0-2.59,5.28Zm17.3,40.52a59.42,59.42,0,0,1-3.53-14c-.65-.23-1.3-.45-1.93-.7a58.92,58.92,0,0,1-13.11-7.09,31.44,31.44,0,0,0,18.58,21.79Zm39.53-13.78a55.13,55.13,0,0,1-16.72,3.54,58.93,58.93,0,0,1-7.15,12.41,31.56,31.56,0,0,0,23.88-15.95Z"/><path class="cls-1" d="M1833.24,519.17a32.75,32.75,0,1,1-30.84-34.55h0A32.79,32.79,0,0,1,1833.24,519.17Zm-2.5-.15a30.08,30.08,0,0,0-5.12-18.64,52.66,52.66,0,0,1-11.95,7,65.16,65.16,0,0,1,2.53,21.15,48.46,48.46,0,0,0,14.52-9.17C1830.73,519.25,1830.74,519.14,1830.74,519Zm-29.23,28.49A30.09,30.09,0,0,0,1810,546a53.43,53.43,0,0,0,3.38-13.75,65,65,0,0,1-19.83,3.45A52.59,52.59,0,0,0,1801.51,547.51Zm-14.33-37.57a62.41,62.41,0,0,0,23.42-4,47.78,47.78,0,0,0-11.2-18.88,30,30,0,0,0-8.29,1.5A48.28,48.28,0,0,0,1787.18,509.94Zm.12,2.49a62.28,62.28,0,0,0,5.11,20.79,62.43,62.43,0,0,0,21.22-3.69,62.6,62.6,0,0,0-2.31-21.22A64.74,64.74,0,0,1,1787.3,512.43Zm15.61-25.31a51.41,51.41,0,0,1,10,17.88,50.06,50.06,0,0,0,11.24-6.63A30.16,30.16,0,0,0,1802.91,487.12Zm-31,20.42a54.4,54.4,0,0,0,12.78,2.32,52.23,52.23,0,0,1,3.17-20A30.39,30.39,0,0,0,1771.91,507.54Zm-1.57,8a30,30,0,0,0,2.67,14.28,54,54,0,0,0,16.67,3.38,65,65,0,0,1-4.89-20.83,57,57,0,0,1-13.59-2.44,30.1,30.1,0,0,0-.86,5.59Zm27.83,31.91a56.79,56.79,0,0,1-7.37-11.74,19.29,19.29,0,0,1-2-.07,56.38,56.38,0,0,1-14.1-2.59,30.24,30.24,0,0,0,23.47,14.38Zm32-24.32a53,53,0,0,1-14.23,8.2,56.46,56.46,0,0,1-2.86,13.47,30.31,30.31,0,0,0,17.14-21.69Z"/><path class="cls-1" d="M1490.86,406.53a24.57,24.57,0,1,1-.07-.66C1490.81,406.09,1490.84,406.31,1490.86,406.53Zm-1.88.21a22.77,22.77,0,0,0-6.21-13.23,39.24,39.24,0,0,1-8,6.76,49,49,0,0,1,4.59,15.42A36.5,36.5,0,0,0,1489,407Zm-18.11,25a22.75,22.75,0,0,0,6.15-2.22,40.67,40.67,0,0,0,.75-10.67,49.08,49.08,0,0,1-14.33,5.11,40.42,40.42,0,0,0,7.43,7.75Zm-15.5-26.12a46.88,46.88,0,0,0,16.93-6A36.31,36.31,0,0,0,1461.53,387a23,23,0,0,0-6,2.18A36.51,36.51,0,0,0,1455.37,405.62Zm.41,1.85a47.41,47.41,0,0,0,6.49,14.82,47.32,47.32,0,0,0,15.32-5.48,47.46,47.46,0,0,0-4.45-15.51,48.89,48.89,0,0,1-17.36,6.12Zm8.38-20.86a39,39,0,0,1,9.73,12,37.62,37.62,0,0,0,7.52-6.38,22.79,22.79,0,0,0-17.25-5.67Zm-20.46,19.14a41.27,41.27,0,0,0,9.81.09,39.5,39.5,0,0,1-.21-15.32A22.93,22.93,0,0,0,1443.7,405.75Zm-.15,6.15a22.78,22.78,0,0,0,3.83,10.29,40.68,40.68,0,0,0,12.84.37,49.27,49.27,0,0,1-6.31-14.88,43.33,43.33,0,0,1-10.43-.06,22.66,22.66,0,0,0,.07,4.28Zm24.83,20.18a42.92,42.92,0,0,1-7-7.8c-.49.08-1,.15-1.48.2a43.06,43.06,0,0,1-10.82-.11,22.88,22.88,0,0,0,19.3,7.71Zm20.74-22.23a40.15,40.15,0,0,1-9.54,7.93,43.63,43.63,0,0,1-.4,10.4,22.92,22.92,0,0,0,9.94-18.33Z"/><path class="cls-1" d="M1347.54,513.68a29.1,29.1,0,1,1-27.48-30.63h0A29.13,29.13,0,0,1,1347.54,513.68Zm-2.22-.12a26.69,26.69,0,0,0-4.61-16.55,46.56,46.56,0,0,1-10.59,6.27,58.2,58.2,0,0,1,2.31,18.79,42.74,42.74,0,0,0,12.87-8.2c0-.1,0-.21,0-.31ZM1319.44,539a26.65,26.65,0,0,0,7.56-1.35,47.38,47.38,0,0,0,3-12.23,57.39,57.39,0,0,1-17.61,3.13,47,47,0,0,0,7,10.45Zm-12.86-33.35a55.34,55.34,0,0,0,20.8-3.65,42.56,42.56,0,0,0-10-16.74,26.54,26.54,0,0,0-7.38,1.39A43,43,0,0,0,1306.58,505.62Zm.12,2.21a55.39,55.39,0,0,0,4.61,18.46,55.54,55.54,0,0,0,18.84-3.36,55.41,55.41,0,0,0-2.15-18.82,57.4,57.4,0,0,1-21.3,3.74Zm13.79-22.54a45.74,45.74,0,0,1,8.93,15.85,44.27,44.27,0,0,0,10-5.93,26.83,26.83,0,0,0-18.93-9.9ZM1293,503.55a48.17,48.17,0,0,0,11.36,2,46.55,46.55,0,0,1,2.75-17.81A27,27,0,0,0,1293,503.55Zm-1.37,7.11a26.7,26.7,0,0,0,2.42,12.67,47.58,47.58,0,0,0,14.82,3,57.86,57.86,0,0,1-4.41-18.49,50.61,50.61,0,0,1-12.08-2.13,26.23,26.23,0,0,0-.74,4.91Zm24.84,28.25a50,50,0,0,1-6.59-10.4,17.15,17.15,0,0,1-1.76-.06,50.3,50.3,0,0,1-12.53-2.26,26.86,26.86,0,0,0,20.89,12.72Zm28.39-21.71a46.9,46.9,0,0,1-12.62,7.33,50.14,50.14,0,0,1-2.49,12,26.94,26.94,0,0,0,15.12-19.33Z"/><path class="cls-1" d="M1109.71,689.62A24.35,24.35,0,1,1,1080,672.25h0A24.37,24.37,0,0,1,1109.71,689.62Zm-1.79.47a22.39,22.39,0,0,0-7.92-12,39.17,39.17,0,0,1-6.83,7.71,48.34,48.34,0,0,1,6.65,14.37,35.68,35.68,0,0,0,8.15-9.82,2.56,2.56,0,0,0,0-.27ZM1093.8,717a22.34,22.34,0,0,0,5.67-3,39.38,39.38,0,0,0-.78-10.5,47.93,47.93,0,0,1-13.22,7,39.13,39.13,0,0,0,8.33,6.49ZM1075,693.68a46,46,0,0,0,15.64-8.23,35.6,35.6,0,0,0-12.27-10.77,22,22,0,0,0-5.51,3A35.88,35.88,0,0,0,1075,693.68Zm.66,1.74a46.32,46.32,0,0,0,8.4,13.52,46.4,46.4,0,0,0,14.15-7.5A46.64,46.64,0,0,0,1091.7,687a48.26,48.26,0,0,1-16,8.45Zm5.22-21.49a38.15,38.15,0,0,1,11.17,10.34,36.81,36.81,0,0,0,6.42-7.28,22.41,22.41,0,0,0-17.57-3.06Zm-17.22,21.57a40.55,40.55,0,0,0,9.56-1.3,38.93,38.93,0,0,1-2.36-14.89,22.57,22.57,0,0,0-7.18,16.19Zm.73,6a22.32,22.32,0,0,0,5.17,9.48,40.32,40.32,0,0,0,12.56-1.45,48.4,48.4,0,0,1-8.25-13.6,43.13,43.13,0,0,1-10.17,1.4,22.83,22.83,0,0,0,.71,4.18Zm27,16.15a42.47,42.47,0,0,1-7.92-6.6c-.47.14-.94.28-1.41.4a42.3,42.3,0,0,1-10.56,1.41,22.47,22.47,0,0,0,19.93,4.76Zm17.06-24.57a39.47,39.47,0,0,1-8.18,9.07,42,42,0,0,1,1.08,10.18,22.54,22.54,0,0,0,7.14-19.24Z"/><path class="cls-1" d="M1005.45,776.73a25.65,25.65,0,1,1-16.08-32.52A25.64,25.64,0,0,1,1005.45,776.73Zm-1.86-.63a23.53,23.53,0,0,0,0-15.15,41,41,0,0,1-10.48,2.82,51.06,51.06,0,0,1-2.49,16.5,37.77,37.77,0,0,0,12.87-3.92,1.86,1.86,0,0,0,.1-.25Zm-28,15.44a23.88,23.88,0,0,0,6.74.63,42.17,42.17,0,0,0,5.41-9.68A50.94,50.94,0,0,1,972,781a41.55,41.55,0,0,0,3.56,10.57Zm-3-31.35A48.53,48.53,0,0,0,991.11,762a37.48,37.48,0,0,0-4.54-16.58,23.37,23.37,0,0,0-6.56-.6,38,38,0,0,0-7.43,15.35Zm-.43,1.91a48.89,48.89,0,0,0-.45,16.76,48.74,48.74,0,0,0,16.78,1.62A48.79,48.79,0,0,0,991.16,764a50.67,50.67,0,0,1-19-1.87Zm17.05-15.87A40.19,40.19,0,0,1,993,761.8a38.89,38.89,0,0,0,9.87-2.67,23.68,23.68,0,0,0-13.67-12.9Zm-27.65,9a43.91,43.91,0,0,0,9.16,4.41,41,41,0,0,1,6.56-14.47,23.76,23.76,0,0,0-15.73,10Zm-2.85,5.7a23.6,23.6,0,0,0-1,11.34,42.1,42.1,0,0,0,11.89,6,50.88,50.88,0,0,1,.64-16.74,45.14,45.14,0,0,1-9.76-4.67,23.94,23.94,0,0,0-1.78,4Zm14.39,29.88a45,45,0,0,1-3.13-10.4L968.5,780a44.65,44.65,0,0,1-10.1-4.89,23.7,23.7,0,0,0,14.69,15.73Zm29.26-11.71a41.68,41.68,0,0,1-12.45,3.24,44.5,44.5,0,0,1-5,9.57,23.74,23.74,0,0,0,17.44-12.83Z"/><path class="cls-1" d="M777.89,796.34a30.8,30.8,0,1,1-24.23-36.2A30.81,30.81,0,0,1,777.89,796.34Zm-2.31-.46a28.32,28.32,0,0,0-2.36-18,49.3,49.3,0,0,1-12,5,60.76,60.76,0,0,1-.38,20,45.34,45.34,0,0,0,14.71-6.67A1.19,1.19,0,0,1,775.58,795.88Zm-30.91,22.74a28.06,28.06,0,0,0,8.13-.31,50.21,50.21,0,0,0,4.91-12.37,61.22,61.22,0,0,1-18.91.66A50,50,0,0,0,744.67,818.62Zm-8.5-36.85a58.53,58.53,0,0,0,22.34-.71,45,45,0,0,0-8-19,28,28,0,0,0-7.91.32,45.46,45.46,0,0,0-6.43,19.41Zm-.21,2.34a59,59,0,0,0,2.08,20,58.83,58.83,0,0,0,20.24-.7,58.84,58.84,0,0,0,.6-20.07,60.75,60.75,0,0,1-22.88.79Zm17.82-21.49a48.44,48.44,0,0,1,7,17.94,46.5,46.5,0,0,0,11.33-4.72A28.4,28.4,0,0,0,753.78,762.62Zm-31.52,15a51.56,51.56,0,0,0,11.6,3.82,49.18,49.18,0,0,1,5.54-18.24A28.54,28.54,0,0,0,722.26,777.62Zm-2.49,7.24a28.18,28.18,0,0,0,.64,13.65,50.6,50.6,0,0,0,15.09,5.29,61,61,0,0,1-1.86-20,53.62,53.62,0,0,1-12.34-4,27.45,27.45,0,0,0-1.53,5Zm21.8,33.32a53.4,53.4,0,0,1-5.35-11.89c-.61-.1-1.23-.2-1.83-.32a52.94,52.94,0,0,1-12.79-4.24,28.44,28.44,0,0,0,20,16.41Zm33-18.52a49.44,49.44,0,0,1-14.32,5.8,53.92,53.92,0,0,1-4.4,12.18,28.53,28.53,0,0,0,18.72-18Z"/><path class="cls-1" d="M850,643a23.53,23.53,0,1,1-29.35-15.69A23.53,23.53,0,0,1,850,643Zm-1.72.52a21.67,21.67,0,0,0-8.08-11.31,37.33,37.33,0,0,1-6.32,7.69,46.78,46.78,0,0,1,7,13.64,34.65,34.65,0,0,0,7.52-9.78.57.57,0,0,1-.13-.24Zm-12.65,26.46a21.82,21.82,0,0,0,5.36-3.13,37.81,37.81,0,0,0-1.13-10.11,46.74,46.74,0,0,1-12.52,7.24,38.22,38.22,0,0,0,8.28,6Zm-19-21.78a44.74,44.74,0,0,0,14.8-8.54,34.3,34.3,0,0,0-12.23-10,21.07,21.07,0,0,0-5.22,3.07,34.9,34.9,0,0,0,2.66,15.47Zm.69,1.65a45.2,45.2,0,0,0,8.61,12.75,44.85,44.85,0,0,0,13.39-7.75,45,45,0,0,0-6.81-13.74,46.71,46.71,0,0,1-15.18,8.74Zm4.26-20.94a36.86,36.86,0,0,1,11.17,9.58,35.73,35.73,0,0,0,5.93-7.27,21.66,21.66,0,0,0-17.09-2.31Zm-15.84,21.45a38.83,38.83,0,0,0,9.2-1.6,37.47,37.47,0,0,1-2.83-14.29A21.83,21.83,0,0,0,805.74,650.32Zm.93,5.78a21.78,21.78,0,0,0,5.33,9,38.68,38.68,0,0,0,12.08-1.86,46.89,46.89,0,0,1-8.45-12.83,41.63,41.63,0,0,1-9.77,1.72A20.72,20.72,0,0,0,806.67,656.1Zm26.68,14.61a40.88,40.88,0,0,1-7.89-6.08l-1.34.44A41,41,0,0,1,814,666.81,21.69,21.69,0,0,0,833.35,670.71Zm15.58-24.35a37.6,37.6,0,0,1-7.56,9.06,41,41,0,0,1,1.41,9.79,21.78,21.78,0,0,0,6.15-18.85Z"/><path class="cls-1" d="M958.17,545.09a24.39,24.39,0,1,1-30.48-16.16A24.38,24.38,0,0,1,958.17,545.09Zm-1.77.55A22.45,22.45,0,0,0,948,534a39.17,39.17,0,0,1-6.52,8,48.84,48.84,0,0,1,7.25,14.12,35.67,35.67,0,0,0,7.75-10.18Zm-13,27.47a22.12,22.12,0,0,0,5.55-3.26,39.38,39.38,0,0,0-1.21-10.48,48.49,48.49,0,0,1-13,7.56,39.29,39.29,0,0,0,8.63,6.18Zm-19.78-22.49a46.33,46.33,0,0,0,15.31-8.89,35.67,35.67,0,0,0-12.72-10.27,22.27,22.27,0,0,0-5.4,3.19A36.26,36.26,0,0,0,923.62,550.62Zm.73,1.71a46.63,46.63,0,0,0,9,13.19,46.52,46.52,0,0,0,13.86-8.09,46.66,46.66,0,0,0-7.12-14.22,48.27,48.27,0,0,1-15.74,9.1Zm4.33-21.71a38.47,38.47,0,0,1,11.61,9.89,36.74,36.74,0,0,0,6.13-7.54A22.44,22.44,0,0,0,928.68,530.62Zm-16.35,22.3a40.64,40.64,0,0,0,9.53-1.69,38.83,38.83,0,0,1-3-14.81,22.63,22.63,0,0,0-6.53,16.46Zm1,6a22.52,22.52,0,0,0,5.56,9.28,40.34,40.34,0,0,0,12.52-2,48.4,48.4,0,0,1-8.81-13.28,42,42,0,0,1-10.13,1.82,22.41,22.41,0,0,0,.84,4.13Zm27.67,15a42,42,0,0,1-8.19-6.28c-.47.16-.93.32-1.4.46A42.15,42.15,0,0,1,920.9,570,22.51,22.51,0,0,0,941,573.92Zm16.09-25.3a39.45,39.45,0,0,1-7.81,9.41,42.5,42.5,0,0,1,1.5,10.15A22.58,22.58,0,0,0,957.09,548.62Z"/><path class="cls-1" d="M1017.58,398.11A35.43,35.43,0,1,1,982,362.89,35.48,35.48,0,0,1,1017.58,398.11Zm-2.7,0a32.58,32.58,0,0,0-6.82-19.78,57,57,0,0,1-12.41,8.39,70.37,70.37,0,0,1,4.18,22.66,52.22,52.22,0,0,0,15-10.9,1,1,0,0,0,0-.35Zm-29.6,32.76a32.62,32.62,0,0,0,9.08-2.22,57.77,57.77,0,0,0,2.7-15,70.56,70.56,0,0,1-21.17,5.09,57.55,57.55,0,0,0,9.39,12.18Zm-18.06-39.55a67.3,67.3,0,0,0,25-5.95c-3.29-8-7.87-14.8-13.39-19.61a32.46,32.46,0,0,0-8.83,2.18A52.5,52.5,0,0,0,967.22,391.32Zm.3,2.68a67.71,67.71,0,0,0,7,22.09,67.39,67.39,0,0,0,22.6-5.47,67.78,67.78,0,0,0-3.94-22.74A70.08,70.08,0,0,1,967.52,394Zm15.12-28.38a55.87,55.87,0,0,1,12,18.62,53.86,53.86,0,0,0,11.68-7.94A32.66,32.66,0,0,0,982.64,365.62Zm-32.06,24.16a59.57,59.57,0,0,0,13.95,1.63,56.5,56.5,0,0,1,2.05-21.79A32.81,32.81,0,0,0,950.58,389.78Zm-1.15,8.73a32.67,32.67,0,0,0,3.86,15.23,58.31,58.31,0,0,0,18.23,2.49,70.45,70.45,0,0,1-6.71-22.14A61.55,61.55,0,0,1,950,392.38,32.3,32.3,0,0,0,949.43,398.51ZM981.67,431a61.44,61.44,0,0,1-8.77-12.16q-1.06,0-2.13.06a61.37,61.37,0,0,1-15.39-1.83A32.71,32.71,0,0,0,981.67,431Zm32.93-28.41a56.94,56.94,0,0,1-14.81,9.83,61.76,61.76,0,0,1-2.15,14.74A32.87,32.87,0,0,0,1014.6,402.62Z"/><path class="cls-1" d="M853,288.4a36.65,36.65,0,1,1-44.17-27.13A36.7,36.7,0,0,1,853,288.4Zm-2.71.65a33.74,33.74,0,0,0-11.51-18.34,58.62,58.62,0,0,1-10.54,11.37,73.1,73.1,0,0,1,9.53,21.86,54.23,54.23,0,0,0,12.6-14.52C850.31,289.3,850.29,289.21,850.26,289.05Zm-22.18,40a33.61,33.61,0,0,0,8.64-4.37,59.5,59.5,0,0,0-.82-15.82,72.78,72.78,0,0,1-20.14,10.1A59.74,59.74,0,0,0,828.08,329Zm-27.45-35.64a69.56,69.56,0,0,0,23.8-11.87c-5.19-7.29-11.35-13.06-18.09-16.61a33.59,33.59,0,0,0-8.4,4.27A54.25,54.25,0,0,0,800.63,293.37Zm.93,2.63a70.21,70.21,0,0,0,12.2,20.63,70,70,0,0,0,21.54-10.8,69.69,69.69,0,0,0-9.32-22A72.25,72.25,0,0,1,801.56,296Zm8.57-32.16a57.59,57.59,0,0,1,16.47,15.93A55.16,55.16,0,0,0,836.51,269,33.74,33.74,0,0,0,810.13,263.84Zm-26.64,31.88a61.65,61.65,0,0,0,14.45-1.63,58.66,58.66,0,0,1-3.07-22.49A34,34,0,0,0,783.49,295.72Zm.9,9.07a33.63,33.63,0,0,0,7.46,14.42,60.49,60.49,0,0,0,19-1.76,73.19,73.19,0,0,1-12-20.75,64,64,0,0,1-15.35,1.77A33.76,33.76,0,0,0,784.39,304.79ZM824.51,330a63.51,63.51,0,0,1-11.69-10.2c-.71.2-1.42.39-2.13.56a63.84,63.84,0,0,1-15.94,1.77A33.79,33.79,0,0,0,824.51,330ZM851,293.59A59.13,59.13,0,0,1,838.41,307a63.34,63.34,0,0,1,1.28,15.36A34,34,0,0,0,851,293.59Z"/><path class="cls-1" d="M643.53,503.78a39.05,39.05,0,1,1-38.37-39.72A39.06,39.06,0,0,1,643.53,503.78Zm-3,0a35.91,35.91,0,0,0-7-22,62.51,62.51,0,0,1-13.9,8.93,77.72,77.72,0,0,1,4,25.08,57.49,57.49,0,0,0,16.86-11.63,1.09,1.09,0,0,0,.06-.43Zm-33.46,35.35a36,36,0,0,0,10.08-2.21,64,64,0,0,0,3.35-16.54A77.37,77.37,0,0,1,597,525.45a63,63,0,0,0,10.05,13.63ZM588.21,495a74,74,0,0,0,27.71-5.92c-3.42-9-8.3-16.51-14.26-21.95a35.5,35.5,0,0,0-9.8,2.18C588.82,476.71,587.57,485.55,588.21,495Zm.26,3a74.58,74.58,0,0,0,7.1,24.52,74.39,74.39,0,0,0,25.09-5.43,74.44,74.44,0,0,0-3.76-25.17A77.23,77.23,0,0,1,588.47,498Zm17.38-30.92a61.61,61.61,0,0,1,12.76,20.82,58.73,58.73,0,0,0,13.08-8.44,36,36,0,0,0-25.84-12.41Zm-36,25.82a65.09,65.09,0,0,0,15.33,2.16,62.54,62.54,0,0,1,2.82-24,36.2,36.2,0,0,0-18.1,21.81Zm-1.49,9.6a35.84,35.84,0,0,0,3.87,16.88,64.06,64.06,0,0,0,20,3.22A77.68,77.68,0,0,1,585.4,498a68.09,68.09,0,0,1-16.31-2.26,36.88,36.88,0,0,0-.68,6.71Zm34.71,36.67a67.3,67.3,0,0,1-9.36-13.63h-2.35a67.18,67.18,0,0,1-16.92-2.41,36.06,36.06,0,0,0,28.68,16Zm37-30.52a63.15,63.15,0,0,1-16.56,10.45,67.94,67.94,0,0,1-2.76,16.19,36.2,36.2,0,0,0,19.38-26.68Z"/><path class="cls-1" d="M555.83,622.4a29.93,29.93,0,1,1-38.06-18.53h0A30,30,0,0,1,555.83,622.4Zm-2.16.74a27.39,27.39,0,0,0-10.81-14,48.17,48.17,0,0,1-7.66,10.08,59.53,59.53,0,0,1,9.48,17,44.22,44.22,0,0,0,9.09-12.8c0-.08,0-.18-.1-.23Zm-14.81,34.24a27.54,27.54,0,0,0,6.67-4.19,48.94,48.94,0,0,0-1.92-12.79A59.52,59.52,0,0,1,528,650.19a49.33,49.33,0,0,0,10.82,7.19Zm-25.13-26.77a57,57,0,0,0,18.4-11.54,43.64,43.64,0,0,0-16-12.06,26.55,26.55,0,0,0-6.48,4.14A44.17,44.17,0,0,0,513.73,630.61Zm1,2.06a57.21,57.21,0,0,0,11.55,15.8A57.29,57.29,0,0,0,542.92,638a57.12,57.12,0,0,0-9.32-17.14,59.18,59.18,0,0,1-18.94,11.84Zm4.4-26.82a47,47,0,0,1,14.6,11.64,45.37,45.37,0,0,0,7.2-9.51,27.58,27.58,0,0,0-21.87-2.13Zm-19.11,28a51.23,51.23,0,0,0,11.61-2.47,47.73,47.73,0,0,1-4.28-18,27.74,27.74,0,0,0-7.4,20.5Zm1.45,7.3a27.56,27.56,0,0,0,7.22,11.14A49.41,49.41,0,0,0,524,649.35a59.83,59.83,0,0,1-11.37-15.91,52.1,52.1,0,0,1-12.33,2.66,26.22,26.22,0,0,0,1.15,5.09Zm34.61,17.29a52.09,52.09,0,0,1-10.35-7.32c-.56.21-1.13.43-1.69.62a52.42,52.42,0,0,1-12.81,2.71,27.65,27.65,0,0,0,24.78,4Zm18.64-31.69a48.39,48.39,0,0,1-9.18,11.88,52.12,52.12,0,0,1,2.19,12.4,27.73,27.73,0,0,0,6.92-24.25Z"/><path class="cls-1" d="M453,646a30.66,30.66,0,1,1-39-19A30.66,30.66,0,0,1,453,646Zm-2.21.76a28.2,28.2,0,0,0-11.06-14.33,48.68,48.68,0,0,1-7.86,10.31,61.13,61.13,0,0,1,9.7,17.43,45.36,45.36,0,0,0,9.32-13.1Zm-15.21,35.05a28.07,28.07,0,0,0,6.84-4.33,50.09,50.09,0,0,0-2-13.1,60.69,60.69,0,0,1-16,10,49.36,49.36,0,0,0,11.11,7.43Zm-25.75-27.45a58.24,58.24,0,0,0,18.81-11.77,44.88,44.88,0,0,0-16.4-12.38,27.73,27.73,0,0,0-6.65,4.24,45.28,45.28,0,0,0,4.19,19.91Zm1,2.12a58.68,58.68,0,0,0,11.81,16.19A58.39,58.39,0,0,0,439.7,662a58.45,58.45,0,0,0-9.53-17.57,60.27,60.27,0,0,1-19.4,12.11ZM415.37,629a48.17,48.17,0,0,1,15,11.94,47,47,0,0,0,7.39-9.73A28.27,28.27,0,0,0,415.31,629ZM395.7,657.73a51.5,51.5,0,0,0,11.9-2.52,49,49,0,0,1-4.37-18.47A28.46,28.46,0,0,0,395.7,657.73Zm1.48,7.48a28.15,28.15,0,0,0,7.38,11.41,50.61,50.61,0,0,0,15.64-3,60.92,60.92,0,0,1-11.63-16.3,53.07,53.07,0,0,1-12.64,2.7,28.23,28.23,0,0,0,1.25,5.19ZM432.61,683a53.41,53.41,0,0,1-10.55-7.55c-.58.22-1.16.44-1.73.64a52.59,52.59,0,0,1-13.13,2.75A28.27,28.27,0,0,0,432.61,683Zm19.13-32.44a49.85,49.85,0,0,1-9.42,12.15,53.06,53.06,0,0,1,2.31,12.68,28.44,28.44,0,0,0,7.11-24.83Z"/><path class="cls-1" d="M300.27,703.38A34,34,0,1,1,262.19,674h0A34,34,0,0,1,300.27,703.38Zm-2.57.33a31.25,31.25,0,0,0-8.81-18,54.78,54.78,0,0,1-10.83,9.44,67.7,67.7,0,0,1,6.63,21.09,50,50,0,0,0,13.05-12.14c0-.15,0-.27,0-.39Zm-24.35,34.67a31.1,31.1,0,0,0,8.39-3.18,55.51,55.51,0,0,0,.81-14.67A67.44,67.44,0,0,1,263,727.86a55.44,55.44,0,0,0,10.35,10.52Zm-21.83-35.57a64.55,64.55,0,0,0,23.12-8.59,49.61,49.61,0,0,0-15.05-17.11,31.4,31.4,0,0,0-8.16,3.11,50.09,50.09,0,0,0,.09,22.59Zm.6,2.52a64.77,64.77,0,0,0,9.21,20.22,64.66,64.66,0,0,0,20.93-7.84,65.18,65.18,0,0,0-6.42-21.2,67.14,67.14,0,0,1-23.72,8.82Zm11.07-28.81a53.38,53.38,0,0,1,13.61,16.31,51.33,51.33,0,0,0,10.2-8.92,31.31,31.31,0,0,0-23.81-7.39Zm-27.71,26.77a56.81,56.81,0,0,0,13.48-.08,54.18,54.18,0,0,1-.6-21,31.53,31.53,0,0,0-12.88,21.08Zm-.06,8.45a31.17,31.17,0,0,0,5.46,14,55.59,55.59,0,0,0,17.65.24,67.46,67.46,0,0,1-9-20.3,59.23,59.23,0,0,1-14.33.12,31.33,31.33,0,0,0,.22,5.89Zm34.51,27.2a58.59,58.59,0,0,1-9.77-10.56l-2,.31a58.73,58.73,0,0,1-14.87.06A31.37,31.37,0,0,0,269.93,738.94Zm28-31A54.69,54.69,0,0,1,285,719.08a58.83,58.83,0,0,1-.33,14.28A31.48,31.48,0,0,0,298,708Z"/><path class="cls-1" d="M167,639.91a34.35,34.35,0,1,1-44.59-19.28h0A34.4,34.4,0,0,1,167,639.91Zm-2.43,1a31.59,31.59,0,0,0-13.13-15.47,55.21,55.21,0,0,1-8.26,12,68.08,68.08,0,0,1,11.76,19,50.46,50.46,0,0,0,9.75-15.16Zm-15.21,40a31.24,31.24,0,0,0,7.43-5.2A55.73,55.73,0,0,0,154,661.13a68.47,68.47,0,0,1-17.33,12.06,55.59,55.59,0,0,0,12.72,7.71Zm-30.25-29.39a65.19,65.19,0,0,0,20.5-14.18,50.08,50.08,0,0,0-19-13,31.9,31.9,0,0,0-7.22,5.08,50.83,50.83,0,0,0,5.75,22.09Zm1.22,2.32a65.4,65.4,0,0,0,14.06,17.51A65.38,65.38,0,0,0,153,658.44a65.47,65.47,0,0,0-11.58-19.16,67.85,67.85,0,0,1-21.06,14.55Zm3.65-31a54.34,54.34,0,0,1,17.41,12.58,52.25,52.25,0,0,0,7.76-11.28A31.64,31.64,0,0,0,124,622.85ZM103.52,656a57.22,57.22,0,0,0,13.19-3.45,54.85,54.85,0,0,1-5.85-20.45A31.89,31.89,0,0,0,103.55,656Zm2,8.29a31.55,31.55,0,0,0,8.85,12.4,56.46,56.46,0,0,0,17.35-4.17,68.41,68.41,0,0,1-13.86-17.65,60,60,0,0,1-14,3.69,31.93,31.93,0,0,0,1.74,5.74Zm40.59,18a59.75,59.75,0,0,1-12.21-7.9c-.64.27-1.27.55-1.91.8a59.49,59.49,0,0,1-14.55,3.77,31.73,31.73,0,0,0,28.75,3.37ZM165.83,645a55.32,55.32,0,0,1-9.91,14.1,59,59,0,0,1,3.24,14.07A31.78,31.78,0,0,0,165.91,645Z"/><path class="cls-1" d="M376.54,544.48a37.82,37.82,0,1,1-35.19-40.28A37.83,37.83,0,0,1,376.54,544.48Zm-2.87-.2A34.75,34.75,0,0,0,368,522.69a60.44,60.44,0,0,1-13.87,8,75.07,75.07,0,0,1,2.68,24.46,55.68,55.68,0,0,0,16.87-10.44A1.26,1.26,0,0,1,373.67,544.28Zm-34.08,32.58a34.69,34.69,0,0,0,9.85-1.65,61.5,61.5,0,0,0,4.05-15.84,75.15,75.15,0,0,1-22.94,3.77,60.81,60.81,0,0,0,9,13.72Zm-16.14-43.54a71.85,71.85,0,0,0,27.09-4.39c-2.87-8.82-7.22-16.37-12.73-21.92a34.67,34.67,0,0,0-9.58,1.63A55.88,55.88,0,0,0,323.45,533.32Zm.11,2.88a72.38,72.38,0,0,0,5.68,24.06,71.92,71.92,0,0,0,24.54-4,72.31,72.31,0,0,0-2.43-24.54A74.77,74.77,0,0,1,323.56,536.2Zm18.31-29.06a59.42,59.42,0,0,1,11.34,20.75,57.35,57.35,0,0,0,13.05-7.54A34.84,34.84,0,0,0,341.87,507.14Zm-36,23.24a63.2,63.2,0,0,0,14.73,2.82,60.43,60.43,0,0,1,3.88-23.09,35.13,35.13,0,0,0-18.64,20.27Zm-1.9,9.21a34.75,34.75,0,0,0,2.93,16.52,62,62,0,0,0,19.21,4.07,75.09,75.09,0,0,1-5.41-24.1,65.8,65.8,0,0,1-15.67-3,34.49,34.49,0,0,0-1.09,6.54Zm31.8,37.14a65.58,65.58,0,0,1-8.39-13.63,17.17,17.17,0,0,1-2.27-.1,65.67,65.67,0,0,1-16.25-3.15,34.89,34.89,0,0,0,26.88,16.88ZM373,549a61.13,61.13,0,0,1-16.53,9.31A65.5,65.5,0,0,1,353,573.83,35,35,0,0,0,373,549Z"/><path class="cls-1" d="M443.85,466.91a28.71,28.71,0,1,1-19.73-35.48h0A28.74,28.74,0,0,1,443.85,466.91Zm-2.11-.6a26.34,26.34,0,0,0-.81-16.93,46,46,0,0,1-11.56,3.71,57,57,0,0,1-1.89,18.53,42,42,0,0,0,14.17-5,1.58,1.58,0,0,0,.09-.31Zm-30.46,18.76a26,26,0,0,0,7.57.34,46.65,46.65,0,0,0,5.52-11.11,56.65,56.65,0,0,1-17.62-.85A46.21,46.21,0,0,0,411.28,485.07Zm-5.06-34.88a54.38,54.38,0,0,0,20.8,1,42,42,0,0,0-6-18.29,26.39,26.39,0,0,0-7.37-.31A42.32,42.32,0,0,0,406.22,450.19Zm-.38,2.16a54.73,54.73,0,0,0,.4,18.76,54.8,54.8,0,0,0,18.85.91,54.89,54.89,0,0,0,2.1-18.6A56.64,56.64,0,0,1,405.84,452.35Zm18.21-18.66a45.26,45.26,0,0,1,5.12,17.21,44.36,44.36,0,0,0,10.88-3.52A26.45,26.45,0,0,0,424.05,433.69Zm-30.43,11.53a48,48,0,0,0,10.48,4.4,46,46,0,0,1,6.55-16.52A26.59,26.59,0,0,0,393.62,445.22Zm-2.87,6.53a26.34,26.34,0,0,0-.46,12.72,47.09,47.09,0,0,0,13.62,6.08,57,57,0,0,1-.19-18.75,50.18,50.18,0,0,1-11.16-4.69A25.65,25.65,0,0,0,390.75,451.75Zm17.69,32.62a50,50,0,0,1-4.06-11.45l-1.67-.44a50.16,50.16,0,0,1-11.56-4.92A26.51,26.51,0,0,0,408.44,484.37Zm32.08-14.66A46.39,46.39,0,0,1,426.77,474a50.06,50.06,0,0,1-5,11,26.63,26.63,0,0,0,18.75-15.28Z"/><path class="cls-1" d="M222.37,413a29.72,29.72,0,1,1-20.71-36.58A29.75,29.75,0,0,1,222.37,413Zm-2.18-.6a27.37,27.37,0,0,0-1-17.53,47.42,47.42,0,0,1-11.94,3.94A59.19,59.19,0,0,1,205.44,418a43.93,43.93,0,0,0,14.66-5.36ZM188.8,432.05a27.13,27.13,0,0,0,7.84.28,48.25,48.25,0,0,0,5.62-11.55,58.89,58.89,0,0,1-18.26-.73A48.12,48.12,0,0,0,188.8,432.05ZM183.27,396a56.45,56.45,0,0,0,21.55.92A43.52,43.52,0,0,0,198.5,378a27.17,27.17,0,0,0-7.64-.27A43.94,43.94,0,0,0,183.27,396Zm-.37,2.24a56.76,56.76,0,0,0,.56,19.41,56.48,56.48,0,0,0,19.53.78,57,57,0,0,0,2-19.27,58.47,58.47,0,0,1-22.09-.92Zm18.7-19.47a46.88,46.88,0,0,1,5.4,17.77,45.13,45.13,0,0,0,11.24-3.73A27.38,27.38,0,0,0,201.6,378.74Zm-31.42,12.18a50.05,50.05,0,0,0,10.89,4.51,47.73,47.73,0,0,1,6.65-17.17A27.62,27.62,0,0,0,170.18,390.92Zm-2.92,6.78a27.47,27.47,0,0,0-.37,13.18A49.26,49.26,0,0,0,181,417.07a59.33,59.33,0,0,1-.31-19.45,52.31,52.31,0,0,1-11.59-4.77A27,27,0,0,0,167.26,397.7Zm18.59,33.64a51.88,51.88,0,0,1-4.3-11.83c-.58-.14-1.16-.28-1.73-.44a52.14,52.14,0,0,1-12-5,27.5,27.5,0,0,0,18,17.27Zm33.09-15.44a48.31,48.31,0,0,1-14.2,4.55,51.38,51.38,0,0,1-5.11,11.4,27.51,27.51,0,0,0,19.31-16Z"/><path class="cls-1" d="M1877.4,340.06a32.36,32.36,0,1,1-16.3-42.78A32.37,32.37,0,0,1,1877.4,340.06Zm-2.25-1a29.71,29.71,0,0,0,1.83-19,52,52,0,0,1-13.5,2.27,64.4,64.4,0,0,1-5.11,20.42,47.72,47.72,0,0,0,16.64-3.37,1.7,1.7,0,0,0,.14-.33Zm-37,16a30.1,30.1,0,0,0,8.4,1.6,53.17,53.17,0,0,0,8-11.51,64.15,64.15,0,0,1-19.53-3.79,52.5,52.5,0,0,0,3.08,13.71Zm0-39.74a61.45,61.45,0,0,0,23,4.53,47.15,47.15,0,0,0-3.7-21.37,29.22,29.22,0,0,0-8.18-1.54,47.85,47.85,0,0,0-11.17,18.39Zm-.77,2.35a61.66,61.66,0,0,0-2.59,21,61.94,61.94,0,0,0,20.89,4.06,61.81,61.81,0,0,0,5.34-20.41,64,64,0,0,1-23.67-4.67Zm23.32-17.88a50.78,50.78,0,0,1,2.94,20,49,49,0,0,0,12.71-2.17,29.77,29.77,0,0,0-15.68-17.82Zm-35.81,7.94a54.21,54.21,0,0,0,11,6.64,51.58,51.58,0,0,1,10-17.37,30,30,0,0,0-21,10.74Zm-4.26,6.83a29.78,29.78,0,0,0-2.56,14.12,53.45,53.45,0,0,0,14.21,9,64.61,64.61,0,0,1,2.81-20.95,56.26,56.26,0,0,1-11.68-7,29.19,29.19,0,0,0-2.81,4.84Zm14.47,39.26a55.94,55.94,0,0,1-2.68-13.43c-.6-.25-1.21-.5-1.79-.76a56.26,56.26,0,0,1-12.11-7.35A29.9,29.9,0,0,0,1835.1,353.82Zm38.14-11.17a52.4,52.4,0,0,1-16,2.56,56.66,56.66,0,0,1-7.38,11.43A30,30,0,0,0,1873.24,342.65Z"/><path class="cls-1" d="M1758,411.81a24.8,24.8,0,1,1-20-28.79h0A24.82,24.82,0,0,1,1758,411.81Zm-1.86-.33A22.75,22.75,0,0,0,1754,397a40.16,40.16,0,0,1-9.62,4.19,49.06,49.06,0,0,1,0,16.13,36.44,36.44,0,0,0,11.75-5.59,1.06,1.06,0,0,0,0-.25Zm-24.55,18.78a23.14,23.14,0,0,0,6.54-.37,39.9,39.9,0,0,0,3.77-10,48.93,48.93,0,0,1-15.22.8,40.29,40.29,0,0,0,4.91,9.57Zm-7.39-29.54a47,47,0,0,0,18-.91,36.13,36.13,0,0,0-6.72-15.2,22.25,22.25,0,0,0-6.36.37A36.8,36.8,0,0,0,1724.18,400.72Zm-.08,1.93a47.11,47.11,0,0,0,2,16.09,47.66,47.66,0,0,0,16.28-.87,47.15,47.15,0,0,0,.18-16.16A49,49,0,0,1,1724.1,402.65Zm14-17.63a38.9,38.9,0,0,1,5.89,14.34,38,38,0,0,0,9.06-4,22.89,22.89,0,0,0-15-10.38ZM1713,397.58a42.37,42.37,0,0,0,9.39,2.9,39.54,39.54,0,0,1,4.2-14.77,23,23,0,0,0-13.62,11.83Zm-1.9,5.86a22.67,22.67,0,0,0,.72,11,40.94,40.94,0,0,0,12.23,4,49.18,49.18,0,0,1-1.8-16.1,43.8,43.8,0,0,1-10-3.06,22.56,22.56,0,0,0-1.18,4.12Zm18,26.5a42.93,42.93,0,0,1-4.49-9.49l-1.47-.23a42.87,42.87,0,0,1-10.37-3.22,22.9,22.9,0,0,0,16.38,12.9Zm26.29-15.4a40.5,40.5,0,0,1-11.44,4.89,43.48,43.48,0,0,1-3.36,9.86,23,23,0,0,0,14.82-14.79Z"/><path class="cls-1" d="M1440.59,477.77a31.41,31.41,0,1,1-24.4-37.12h0A31.46,31.46,0,0,1,1440.59,477.77Zm-2.35-.49a28.8,28.8,0,0,0-2.25-18.41,50.75,50.75,0,0,1-12.32,5,62.29,62.29,0,0,1-.56,20.43,46.3,46.3,0,0,0,15.06-6.68C1438.19,477.5,1438.22,477.39,1438.24,477.28Zm-31.72,22.94a28.8,28.8,0,0,0,8.29-.24,51.17,51.17,0,0,0,5.12-12.58,62.17,62.17,0,0,1-19.3.5A50.94,50.94,0,0,0,1406.52,500.22Zm-8.35-37.65A59.85,59.85,0,0,0,1421,462a45.84,45.84,0,0,0-8-19.48,28.35,28.35,0,0,0-8.07.26,46.42,46.42,0,0,0-6.72,19.76Zm-.23,2.38a60,60,0,0,0,1.94,20.44,59.7,59.7,0,0,0,20.65-.54,59.8,59.8,0,0,0,.78-20.45,62.08,62.08,0,0,1-23.37.55Zm18.36-21.83a49.36,49.36,0,0,1,7,18.36,48,48,0,0,0,11.6-4.72,29,29,0,0,0-18.6-13.64Zm-32.28,15a52.3,52.3,0,0,0,11.8,4,50.26,50.26,0,0,1,5.81-18.55A29.11,29.11,0,0,0,1384,458.15Zm-2.6,7.36a28.78,28.78,0,0,0,.53,13.92,51.58,51.58,0,0,0,15.34,5.54,62.89,62.89,0,0,1-1.72-20.45,54.55,54.55,0,0,1-12.55-4.22,28.07,28.07,0,0,0-1.6,5.24Zm21.94,34.17a54.13,54.13,0,0,1-5.35-12.17l-1.86-.34a54.86,54.86,0,0,1-13-4.44A29,29,0,0,0,1403.36,499.65Zm33.82-18.59a51,51,0,0,1-14.66,5.79,54.8,54.8,0,0,1-4.59,12.37,29.09,29.09,0,0,0,19.25-18.13Z"/><path class="cls-1" d="M1495.7,275.23a21.2,21.2,0,1,1-24.28-17.59A21.2,21.2,0,0,1,1495.7,275.23Zm-1.59.25a19.49,19.49,0,0,0-5.84-11.08,33.42,33.42,0,0,1-6.58,6.1,42.1,42.1,0,0,1,4.54,13,30.75,30.75,0,0,0,7.9-7.82A1.36,1.36,0,0,0,1494.11,275.48Zm-14.53,22.11a19.32,19.32,0,0,0,5.17-2.13,33.94,33.94,0,0,0,.22-9.17,41.68,41.68,0,0,1-12.06,4.94A34.65,34.65,0,0,0,1479.58,297.59Zm-14.28-21.76a40.25,40.25,0,0,0,14.25-5.79,30.92,30.92,0,0,0-9.71-10.38,19.41,19.41,0,0,0-5,2.09,31.4,31.4,0,0,0,.46,14Zm.42,1.56a40.38,40.38,0,0,0,6.12,12.43,40.21,40.21,0,0,0,12.9-5.28,40.88,40.88,0,0,0-4.4-13.1,42,42,0,0,1-14.62,5.91Zm6.35-18.17a33.13,33.13,0,0,1,8.8,9.91,31.58,31.58,0,0,0,6.19-5.75,19.49,19.49,0,0,0-15-4.2Zm-16.76,17.17a34.71,34.71,0,0,0,8.4-.3,33.89,33.89,0,0,1-.78-13.11A19.72,19.72,0,0,0,1455.31,276.39Zm.11,5.27a19.53,19.53,0,0,0,3.67,8.66,35,35,0,0,0,11-.18,42.74,42.74,0,0,1-6-12.49,37.08,37.08,0,0,1-8.93.34,20.47,20.47,0,0,0,.26,3.67Zm22,16.31a37,37,0,0,1-6.3-6.4l-1.25.23a36.41,36.41,0,0,1-9.27.32,19.59,19.59,0,0,0,16.91,5.85Zm16.88-19.83a34.12,34.12,0,0,1-7.86,7.16,36.39,36.39,0,0,1,.07,8.91,19.61,19.61,0,0,0,7.83-16.07Z"/><path class="cls-1" d="M1729.1,223.44a34.08,34.08,0,1,1-19.39-44.13h0A34.11,34.11,0,0,1,1729.1,223.44Zm-2.42-.94a31.27,31.27,0,0,0,.91-20.1,54.67,54.67,0,0,1-14.07,3.1,67.78,67.78,0,0,1-4.3,21.75,50.25,50.25,0,0,0,17.32-4.42c0-.11.08-.18.12-.33Zm-38.08,18.81a31.27,31.27,0,0,0,8.91,1.23,55.19,55.19,0,0,0,7.75-12.52,67.73,67.73,0,0,1-20.73-3,55.16,55.16,0,0,0,4,14.29Zm-2.13-41.79a64.61,64.61,0,0,0,24.47,3.54,49.8,49.8,0,0,0-5-22.28,30.71,30.71,0,0,0-8.68-1.18,50.27,50.27,0,0,0-10.81,19.92Zm-.68,2.51a65.18,65.18,0,0,0-1.61,22.22,65.44,65.44,0,0,0,22.18,3.15,65.16,65.16,0,0,0,4.54-21.74,67.48,67.48,0,0,1-25.13-3.63Zm23.58-20a53.54,53.54,0,0,1,4.15,20.9,51.46,51.46,0,0,0,13.25-3A31.35,31.35,0,0,0,1709.35,182Zm-37.27,10.21a57.87,57.87,0,0,0,11.9,6.41,54.58,54.58,0,0,1,9.57-18.81A31.65,31.65,0,0,0,1672.1,192.24Zm-4.11,7.4a31.22,31.22,0,0,0-2,15,55.74,55.74,0,0,0,15.42,8.69,67.61,67.61,0,0,1,1.85-22.18,59.62,59.62,0,0,1-12.67-6.78,30.4,30.4,0,0,0-2.59,5.28Zm17.3,40.52a59.42,59.42,0,0,1-3.53-14c-.65-.23-1.3-.45-1.93-.7a58.92,58.92,0,0,1-13.11-7.09,31.46,31.46,0,0,0,18.58,21.79Zm39.53-13.78a55.37,55.37,0,0,1-16.72,3.54,58.93,58.93,0,0,1-7.15,12.41,31.56,31.56,0,0,0,23.88-16Z"/><path class="cls-1" d="M1795.34,156.2a32.75,32.75,0,1,1-30.84-34.56h0A32.79,32.79,0,0,1,1795.34,156.2Zm-2.5-.15a30.08,30.08,0,0,0-5.12-18.64,52.66,52.66,0,0,1-12,7,65.16,65.16,0,0,1,2.53,21.15,48.66,48.66,0,0,0,14.52-9.17C1792.83,156.28,1792.84,156.17,1792.84,156.05Zm-29.23,28.49a30.09,30.09,0,0,0,8.51-1.51,53.53,53.53,0,0,0,3.38-13.75,65.27,65.27,0,0,1-19.83,3.45A52.81,52.81,0,0,0,1763.61,184.54ZM1749.28,147a62.41,62.41,0,0,0,23.42-4,47.78,47.78,0,0,0-11.2-18.88,29.64,29.64,0,0,0-8.29,1.5A48.26,48.26,0,0,0,1749.28,147Zm.12,2.49a62.34,62.34,0,0,0,5.11,20.79,62.43,62.43,0,0,0,21.22-3.69,62.58,62.58,0,0,0-2.31-21.22A64.74,64.74,0,0,1,1749.4,149.46ZM1765,124.15A51.41,51.41,0,0,1,1775,142a50.06,50.06,0,0,0,11.24-6.63A30.14,30.14,0,0,0,1765,124.15Zm-31,20.42a54.4,54.4,0,0,0,12.78,2.32,52.2,52.2,0,0,1,3.17-20A30.36,30.36,0,0,0,1734,144.57Zm-1.57,8a30,30,0,0,0,2.67,14.28,54,54,0,0,0,16.67,3.38,65.1,65.1,0,0,1-4.89-20.83A57.14,57.14,0,0,1,1733.3,147a30.1,30.1,0,0,0-.86,5.59Zm27.83,31.91a56.79,56.79,0,0,1-7.37-11.74,19.29,19.29,0,0,1-2-.07,56.38,56.38,0,0,1-14.1-2.59,30.24,30.24,0,0,0,23.47,14.38Zm32-24.32a53,53,0,0,1-14.23,8.2,56.46,56.46,0,0,1-2.86,13.47,30.33,30.33,0,0,0,17.14-21.69Z"/><path class="cls-1" d="M1453,43.56a24.57,24.57,0,1,1-.07-.66C1452.91,43.12,1452.94,43.34,1453,43.56Zm-1.88.21a22.71,22.71,0,0,0-6.21-13.23,39.24,39.24,0,0,1-8,6.76,49,49,0,0,1,4.59,15.42A36.5,36.5,0,0,0,1451.1,44Zm-18.11,25a22.75,22.75,0,0,0,6.15-2.22,40.67,40.67,0,0,0,.75-10.67A49.37,49.37,0,0,1,1425.54,61a40.42,40.42,0,0,0,7.43,7.75Zm-15.5-26.12a46.88,46.88,0,0,0,16.93-6A36.13,36.13,0,0,0,1423.63,24a22.6,22.6,0,0,0-6,2.18A36.65,36.65,0,0,0,1417.47,42.65Zm.41,1.85a47.41,47.41,0,0,0,6.49,14.82,47.47,47.47,0,0,0,15.32-5.48,47.46,47.46,0,0,0-4.45-15.51,48.89,48.89,0,0,1-17.36,6.12Zm8.38-20.86a38.86,38.86,0,0,1,9.73,12,38,38,0,0,0,7.52-6.38,22.79,22.79,0,0,0-17.25-5.67ZM1405.8,42.78a41.28,41.28,0,0,0,9.81.09,39.5,39.5,0,0,1-.21-15.32A22.91,22.91,0,0,0,1405.8,42.78Zm-.15,6.15a22.78,22.78,0,0,0,3.83,10.29,41,41,0,0,0,12.84.37A49.27,49.27,0,0,1,1416,44.71a43.33,43.33,0,0,1-10.43-.06,22.67,22.67,0,0,0,.07,4.28Zm24.83,20.18a43.6,43.6,0,0,1-7-7.8c-.49.08-1,.15-1.48.2a43.06,43.06,0,0,1-10.82-.11,22.88,22.88,0,0,0,19.3,7.71Zm20.74-22.23a40.39,40.39,0,0,1-9.54,7.93,43.63,43.63,0,0,1-.4,10.4,22.92,22.92,0,0,0,9.94-18.33Z"/><path class="cls-1" d="M1309.64,150.71a29.1,29.1,0,1,1-27.48-30.63h0A29.13,29.13,0,0,1,1309.64,150.71Zm-2.22-.12a26.65,26.65,0,0,0-4.61-16.55,46.93,46.93,0,0,1-10.59,6.27,58.2,58.2,0,0,1,2.31,18.79,42.74,42.74,0,0,0,12.87-8.2c0-.11,0-.21,0-.31ZM1281.54,176a27,27,0,0,0,7.56-1.35,47.38,47.38,0,0,0,3-12.23,57.7,57.7,0,0,1-17.61,3.13,47,47,0,0,0,7,10.45Zm-12.86-33.35a55.34,55.34,0,0,0,20.8-3.65,42.56,42.56,0,0,0-10-16.74,26.54,26.54,0,0,0-7.38,1.39A43.14,43.14,0,0,0,1268.68,142.65Zm.12,2.21a55.39,55.39,0,0,0,4.61,18.46,55.54,55.54,0,0,0,18.84-3.36,55.41,55.41,0,0,0-2.15-18.82,57.6,57.6,0,0,1-21.3,3.74Zm13.79-22.54a45.74,45.74,0,0,1,8.93,15.85,44.27,44.27,0,0,0,10-5.93,26.8,26.8,0,0,0-18.93-9.9Zm-27.49,18.26a48.17,48.17,0,0,0,11.36,2,46.55,46.55,0,0,1,2.75-17.81A27,27,0,0,0,1255.1,140.58Zm-1.37,7.11a26.72,26.72,0,0,0,2.42,12.67,47.86,47.86,0,0,0,14.82,3,57.86,57.86,0,0,1-4.41-18.49,51.11,51.11,0,0,1-12.08-2.13,26.23,26.23,0,0,0-.74,4.91Zm24.84,28.25a50,50,0,0,1-6.59-10.4,17.15,17.15,0,0,1-1.76-.06,50.3,50.3,0,0,1-12.53-2.26,26.86,26.86,0,0,0,20.89,12.72ZM1307,154.23a47.16,47.16,0,0,1-12.62,7.33,50.35,50.35,0,0,1-2.49,12A26.94,26.94,0,0,0,1307,154.23Z"/><path class="cls-1" d="M1158.42,323.06a24.35,24.35,0,1,1-29.73-17.37h0A24.38,24.38,0,0,1,1158.42,323.06Zm-1.79.47a22.42,22.42,0,0,0-7.92-12,38.88,38.88,0,0,1-6.83,7.71,48.46,48.46,0,0,1,6.65,14.37,35.36,35.36,0,0,0,8.15-9.82,1.28,1.28,0,0,0,0-.27Zm-14.12,26.86a22,22,0,0,0,5.67-3,39.41,39.41,0,0,0-.78-10.5,47.4,47.4,0,0,1-13.22,7,38.5,38.5,0,0,0,8.33,6.49Zm-18.8-23.27a45.8,45.8,0,0,0,15.64-8.23,35.6,35.6,0,0,0-12.27-10.77,22.66,22.66,0,0,0-5.51,3A35.88,35.88,0,0,0,1123.71,327.12Zm.66,1.74a46.53,46.53,0,0,0,8.4,13.52,46.07,46.07,0,0,0,14.15-7.5,46.52,46.52,0,0,0-6.51-14.47,47.9,47.9,0,0,1-16,8.45Zm5.22-21.49a38.42,38.42,0,0,1,11.17,10.34,36.81,36.81,0,0,0,6.42-7.28,22.46,22.46,0,0,0-17.57-3.06Zm-17.22,21.57a40,40,0,0,0,9.56-1.3,38.93,38.93,0,0,1-2.36-14.89,22.59,22.59,0,0,0-7.18,16.19Zm.73,6a22.26,22.26,0,0,0,5.17,9.48,40.32,40.32,0,0,0,12.56-1.45,48.49,48.49,0,0,1-8.25-13.6,43.06,43.06,0,0,1-10.17,1.4,23.41,23.41,0,0,0,.71,4.18Zm27,16.15a42.08,42.08,0,0,1-7.92-6.6c-.47.14-.94.28-1.41.4a41.78,41.78,0,0,1-10.56,1.41,22.47,22.47,0,0,0,19.93,4.76Zm17.06-24.57a39.47,39.47,0,0,1-8.18,9.07,41.56,41.56,0,0,1,1.08,10.18,22.53,22.53,0,0,0,7.14-19.24Z"/><path class="cls-1" d="M740,433.37a30.8,30.8,0,1,1-24.23-36.2A30.8,30.8,0,0,1,740,433.37Zm-2.31-.46a28.31,28.31,0,0,0-2.36-18,49.3,49.3,0,0,1-12,5,60.76,60.76,0,0,1-.38,20,45.55,45.55,0,0,0,14.71-6.67A1.19,1.19,0,0,1,737.68,432.91Zm-30.91,22.74a28.41,28.41,0,0,0,8.13-.31A50.21,50.21,0,0,0,719.81,443a61.22,61.22,0,0,1-18.91.66A50,50,0,0,0,706.77,455.65Zm-8.5-36.85a58.53,58.53,0,0,0,22.34-.71,44.94,44.94,0,0,0-8-19,28,28,0,0,0-7.91.32,45.42,45.42,0,0,0-6.43,19.41Zm-.21,2.34a59,59,0,0,0,2.08,20,58.83,58.83,0,0,0,20.24-.7,58.84,58.84,0,0,0,.6-20.07,60.75,60.75,0,0,1-22.88.79Zm17.82-21.49a48.44,48.44,0,0,1,7,17.94,46.9,46.9,0,0,0,11.33-4.72A28.37,28.37,0,0,0,715.88,399.65Zm-31.52,15a51.56,51.56,0,0,0,11.6,3.82,49.12,49.12,0,0,1,5.54-18.24A28.54,28.54,0,0,0,684.36,414.65Zm-2.49,7.24a28.18,28.18,0,0,0,.64,13.65,50.6,50.6,0,0,0,15.09,5.29,61,61,0,0,1-1.86-20,53.62,53.62,0,0,1-12.34-4,27.45,27.45,0,0,0-1.53,5Zm21.8,33.32a53.6,53.6,0,0,1-5.35-11.89c-.61-.1-1.23-.2-1.83-.32a53.38,53.38,0,0,1-12.79-4.24,28.46,28.46,0,0,0,20,16.41Zm33-18.52a49.44,49.44,0,0,1-14.32,5.8,53.44,53.44,0,0,1-4.4,12.18,28.53,28.53,0,0,0,18.72-18Z"/><path class="cls-1" d="M689.59,276.56a23.53,23.53,0,1,1-29.35-15.69A23.53,23.53,0,0,1,689.59,276.56Zm-1.72.52a21.67,21.67,0,0,0-8.08-11.31,37.33,37.33,0,0,1-6.32,7.69,46.78,46.78,0,0,1,7,13.64,34.79,34.79,0,0,0,7.52-9.78.57.57,0,0,1-.13-.24Zm-12.65,26.46a21.82,21.82,0,0,0,5.36-3.13,37.81,37.81,0,0,0-1.13-10.11,46.74,46.74,0,0,1-12.52,7.24,38.22,38.22,0,0,0,8.28,6Zm-19-21.78a44.74,44.74,0,0,0,14.8-8.54,34.2,34.2,0,0,0-12.23-10,20.77,20.77,0,0,0-5.22,3.07,34.9,34.9,0,0,0,2.66,15.47Zm.69,1.65a45.2,45.2,0,0,0,8.61,12.75,44.85,44.85,0,0,0,13.39-7.75,44.93,44.93,0,0,0-6.81-13.74,46.71,46.71,0,0,1-15.18,8.74Zm4.26-20.94a36.86,36.86,0,0,1,11.17,9.58,35.73,35.73,0,0,0,5.93-7.27,21.66,21.66,0,0,0-17.09-2.31Zm-15.84,21.45a39.34,39.34,0,0,0,9.2-1.6A37.5,37.5,0,0,1,651.7,268,21.79,21.79,0,0,0,645.33,283.92Zm.93,5.78a21.57,21.57,0,0,0,5.33,9,39,39,0,0,0,12.08-1.86A47,47,0,0,1,655.22,284a42.16,42.16,0,0,1-9.77,1.72A20.88,20.88,0,0,0,646.26,289.7Zm26.68,14.61a40.88,40.88,0,0,1-7.89-6.08l-1.34.44a41.43,41.43,0,0,1-10.12,1.74A21.69,21.69,0,0,0,672.94,304.31ZM688.52,280A38,38,0,0,1,681,289a41,41,0,0,1,1.41,9.79A21.8,21.8,0,0,0,688.52,280Z"/><path class="cls-1" d="M920.27,182.12A24.39,24.39,0,1,1,889.79,166,24.39,24.39,0,0,1,920.27,182.12Zm-1.77.55A22.41,22.41,0,0,0,910.1,171a39.17,39.17,0,0,1-6.52,8,48.84,48.84,0,0,1,7.25,14.12,35.67,35.67,0,0,0,7.75-10.18Zm-13,27.47a22.12,22.12,0,0,0,5.55-3.26,39.38,39.38,0,0,0-1.21-10.48,48.49,48.49,0,0,1-13,7.56,39.53,39.53,0,0,0,8.63,6.18Zm-19.78-22.49A46.68,46.68,0,0,0,901,178.76a35.56,35.56,0,0,0-12.72-10.27,22,22,0,0,0-5.4,3.19A36.29,36.29,0,0,0,885.72,187.65Zm.73,1.71a46.63,46.63,0,0,0,9,13.19,46.74,46.74,0,0,0,13.86-8.09,46.43,46.43,0,0,0-7.12-14.22,48.27,48.27,0,0,1-15.74,9.1Zm4.33-21.71a38.32,38.32,0,0,1,11.61,9.89,36.74,36.74,0,0,0,6.13-7.54A22.44,22.44,0,0,0,890.78,167.65ZM874.43,190a40.64,40.64,0,0,0,9.53-1.69,38.87,38.87,0,0,1-3-14.81,22.63,22.63,0,0,0-6.53,16.46Zm1,6a22.52,22.52,0,0,0,5.56,9.28,40.34,40.34,0,0,0,12.52-2A48.4,48.4,0,0,1,884.7,190a42,42,0,0,1-10.13,1.82,22.41,22.41,0,0,0,.84,4.13Zm27.67,15a42,42,0,0,1-8.19-6.28c-.47.16-.93.32-1.4.46A42.15,42.15,0,0,1,883,207,22.51,22.51,0,0,0,903.1,211Zm16.09-25.3a39.45,39.45,0,0,1-7.81,9.41,42.5,42.5,0,0,1,1.5,10.15A22.58,22.58,0,0,0,919.19,185.65Z"/><path class="cls-1" d="M979.68,35.14A35.43,35.43,0,1,1,944.1-.08,35.48,35.48,0,0,1,979.68,35.14Zm-2.7,0a32.55,32.55,0,0,0-6.82-19.78,57,57,0,0,1-12.41,8.39,70.37,70.37,0,0,1,4.18,22.66,52.22,52.22,0,0,0,15-10.9,1,1,0,0,0,.05-.35ZM947.38,67.9a32.62,32.62,0,0,0,9.08-2.22,57.84,57.84,0,0,0,2.7-15A70.56,70.56,0,0,1,938,55.74a57.55,57.55,0,0,0,9.39,12.18ZM929.32,28.35a67.3,67.3,0,0,0,25-6c-3.29-8-7.87-14.8-13.39-19.61A32.46,32.46,0,0,0,932.1,5,52.63,52.63,0,0,0,929.32,28.35Zm.3,2.68a67.71,67.71,0,0,0,7,22.09,67.39,67.39,0,0,0,22.6-5.47,67.78,67.78,0,0,0-3.94-22.74A70.28,70.28,0,0,1,929.62,31ZM944.74,2.65a55.87,55.87,0,0,1,12,18.62,54.34,54.34,0,0,0,11.68-7.94A32.66,32.66,0,0,0,944.74,2.65ZM912.68,26.81a59.57,59.57,0,0,0,14,1.63,56.5,56.5,0,0,1,2-21.79A32.81,32.81,0,0,0,912.68,26.81Zm-1.15,8.73a32.67,32.67,0,0,0,3.86,15.23,58.31,58.31,0,0,0,18.23,2.49,70.45,70.45,0,0,1-6.71-22.14,62.06,62.06,0,0,1-14.81-1.71A32.3,32.3,0,0,0,911.53,35.54Zm32.24,32.52A61.73,61.73,0,0,1,935,55.9q-1.07,0-2.13.06a61.37,61.37,0,0,1-15.39-1.83A32.71,32.71,0,0,0,943.77,68.06ZM976.7,39.65a57.2,57.2,0,0,1-14.81,9.83,61.76,61.76,0,0,1-2.15,14.74A32.87,32.87,0,0,0,976.7,39.65Z"/><path class="cls-1" d="M804,9.84a36.65,36.65,0,1,1-44.17-27.13A36.7,36.7,0,0,1,804,9.84Zm-2.71.65A33.74,33.74,0,0,0,789.77-7.85,58.62,58.62,0,0,1,779.23,3.52a73.1,73.1,0,0,1,9.53,21.86,54.06,54.06,0,0,0,12.6-14.52C801.33,10.74,801.31,10.65,801.28,10.49Zm-22.18,40a33.61,33.61,0,0,0,8.64-4.37,59.5,59.5,0,0,0-.82-15.82,72.78,72.78,0,0,1-20.14,10.1A59.74,59.74,0,0,0,779.1,50.45ZM751.65,14.81a69.56,69.56,0,0,0,23.8-11.87c-5.19-7.29-11.35-13.06-18.09-16.61A33.59,33.59,0,0,0,749-9.4,54.25,54.25,0,0,0,751.65,14.81Zm.93,2.63a70.21,70.21,0,0,0,12.2,20.63,70,70,0,0,0,21.54-10.8,69.69,69.69,0,0,0-9.32-22A72.25,72.25,0,0,1,752.58,17.44Zm8.57-32.16A57.59,57.59,0,0,1,777.62,1.21a55.16,55.16,0,0,0,9.91-10.73A33.74,33.74,0,0,0,761.15-14.72ZM734.51,17.16A61.65,61.65,0,0,0,749,15.53,58.66,58.66,0,0,1,745.89-7,34,34,0,0,0,734.51,17.16Zm.9,9.07a33.63,33.63,0,0,0,7.46,14.42,60.49,60.49,0,0,0,19-1.76,73.19,73.19,0,0,1-12-20.75,64.52,64.52,0,0,1-15.35,1.77A33.76,33.76,0,0,0,735.41,26.23Zm40.12,25.21a63.84,63.84,0,0,1-11.69-10.2c-.71.2-1.42.39-2.13.56a63.84,63.84,0,0,1-15.94,1.77A33.79,33.79,0,0,0,775.53,51.44ZM802,15a59.13,59.13,0,0,1-12.61,13.38,63.34,63.34,0,0,1,1.28,15.36A34,34,0,0,0,802,15Z"/><path class="cls-1" d="M605.63,140.81a39.05,39.05,0,1,1-38.37-39.72A39.06,39.06,0,0,1,605.63,140.81Zm-3,0a35.85,35.85,0,0,0-7-22,62.51,62.51,0,0,1-13.9,8.93,77.68,77.68,0,0,1,4,25.08,57.68,57.68,0,0,0,16.86-11.63,1.09,1.09,0,0,0,.06-.43Zm-33.46,35.35A36.31,36.31,0,0,0,579.25,174a64.06,64.06,0,0,0,3.35-16.54,77.37,77.37,0,0,1-23.46,5.07,63,63,0,0,0,10.05,13.63ZM550.31,132A74,74,0,0,0,578,126.12c-3.42-9-8.3-16.51-14.26-22a35.5,35.5,0,0,0-9.8,2.18C550.92,113.74,549.67,122.58,550.31,132Zm.26,3a74.58,74.58,0,0,0,7.1,24.52,74.28,74.28,0,0,0,25.09-5.43A74.4,74.4,0,0,0,579,129a77.43,77.43,0,0,1-28.43,6ZM568,104.12a61.41,61.41,0,0,1,12.76,20.82,58.73,58.73,0,0,0,13.08-8.44A36,36,0,0,0,568,104.09Zm-36,25.82a65.61,65.61,0,0,0,15.33,2.16,62.54,62.54,0,0,1,2.82-24A36.2,36.2,0,0,0,532,129.91Zm-1.49,9.6a35.84,35.84,0,0,0,3.87,16.88,64.11,64.11,0,0,0,20,3.22,77.68,77.68,0,0,1-6.83-24.58,68.09,68.09,0,0,1-16.31-2.26,36.79,36.79,0,0,0-.68,6.71Zm34.71,36.67a67.3,67.3,0,0,1-9.36-13.63h-2.35a67.24,67.24,0,0,1-16.92-2.41,36.06,36.06,0,0,0,28.68,16Zm37-30.52a63.15,63.15,0,0,1-16.56,10.45,67.94,67.94,0,0,1-2.76,16.19,36.2,36.2,0,0,0,19.38-26.68Z"/><path class="cls-1" d="M461.2,249.86a29.93,29.93,0,1,1-38.06-18.53h0A30,30,0,0,1,461.2,249.86Zm-2.16.74a27.43,27.43,0,0,0-10.81-14,48.17,48.17,0,0,1-7.66,10.08,59.29,59.29,0,0,1,9.48,17,43.9,43.9,0,0,0,9.09-12.8c0-.08,0-.18-.1-.23Zm-14.81,34.24a27.54,27.54,0,0,0,6.67-4.19A49,49,0,0,0,449,267.86a59.52,59.52,0,0,1-15.57,9.79,49,49,0,0,0,10.82,7.19ZM419.1,258.07a56.86,56.86,0,0,0,18.4-11.54,43.56,43.56,0,0,0-16-12.06,26.55,26.55,0,0,0-6.48,4.14A44.31,44.31,0,0,0,419.1,258.07Zm1,2.06a57.21,57.21,0,0,0,11.55,15.8,57.08,57.08,0,0,0,16.64-10.5A56.9,56.9,0,0,0,439,248.29,59.18,59.18,0,0,1,420,260.13Zm4.4-26.82A47.12,47.12,0,0,1,439.1,245a45.37,45.37,0,0,0,7.2-9.51,27.58,27.58,0,0,0-21.87-2.13Zm-19.11,28A50.17,50.17,0,0,0,417,258.84a47.92,47.92,0,0,1-4.28-18,27.75,27.75,0,0,0-7.4,20.5Zm1.45,7.3a27.56,27.56,0,0,0,7.22,11.14,49.41,49.41,0,0,0,15.26-2.94A59.67,59.67,0,0,1,418,260.9a52.1,52.1,0,0,1-12.33,2.66,27,27,0,0,0,1.15,5.09Zm34.61,17.29a52.09,52.09,0,0,1-10.35-7.32c-.56.21-1.13.43-1.69.62a52,52,0,0,1-12.81,2.71,27.62,27.62,0,0,0,24.78,4Zm18.64-31.69a48.39,48.39,0,0,1-9.18,11.88,51.71,51.71,0,0,1,2.19,12.4A27.73,27.73,0,0,0,460,254.24Z"/><path class="cls-1" d="M334.27,336.12a34,34,0,1,1-38.08-29.36h0A34,34,0,0,1,334.27,336.12Zm-2.57.33a31.19,31.19,0,0,0-8.81-18,54.49,54.49,0,0,1-10.83,9.44A67.7,67.7,0,0,1,318.69,349a50,50,0,0,0,13.05-12.14c0-.15,0-.27,0-.39Zm-24.35,34.67a31,31,0,0,0,8.39-3.18,55.12,55.12,0,0,0,.81-14.67A67.62,67.62,0,0,1,297,360.6a55.74,55.74,0,0,0,10.35,10.52Zm-21.83-35.57A64.74,64.74,0,0,0,308.64,327a49.43,49.43,0,0,0-15.05-17.11,31,31,0,0,0-8.16,3.11,50.38,50.38,0,0,0,.09,22.59Zm.6,2.52a65,65,0,0,0,9.21,20.22,64.8,64.8,0,0,0,20.93-7.84,64.79,64.79,0,0,0-6.42-21.2,67.19,67.19,0,0,1-23.72,8.82Zm11.07-28.81a53,53,0,0,1,13.61,16.31,51.33,51.33,0,0,0,10.2-8.92,31.27,31.27,0,0,0-23.81-7.39ZM269.48,336A57.34,57.34,0,0,0,283,336a54.38,54.38,0,0,1-.6-21A31.53,31.53,0,0,0,269.48,336Zm-.06,8.45a31.29,31.29,0,0,0,5.46,14,55.89,55.89,0,0,0,17.65.24,67.68,67.68,0,0,1-9-20.3,59.22,59.22,0,0,1-14.33.12,32.26,32.26,0,0,0,.22,5.89Zm34.51,27.2a59.3,59.3,0,0,1-9.77-10.56l-2,.31a58.73,58.73,0,0,1-14.87.06A31.38,31.38,0,0,0,303.93,371.68Zm28-31A54.92,54.92,0,0,1,319,351.82a58.84,58.84,0,0,1-.33,14.28A31.43,31.43,0,0,0,332,340.72Z"/><path class="cls-1" d="M129.1,276.94a34.35,34.35,0,1,1-44.59-19.29h0A34.39,34.39,0,0,1,129.1,276.94Zm-2.43,1a31.59,31.59,0,0,0-13.13-15.47,55.21,55.21,0,0,1-8.26,12,68.08,68.08,0,0,1,11.76,19,50.58,50.58,0,0,0,9.75-15.16Zm-15.21,40a31.53,31.53,0,0,0,7.43-5.2,55.66,55.66,0,0,0-2.79-14.58,68.47,68.47,0,0,1-17.33,12.06,55.59,55.59,0,0,0,12.72,7.71ZM81.21,288.55a65.35,65.35,0,0,0,20.5-14.18,50.08,50.08,0,0,0-19-13,31.9,31.9,0,0,0-7.22,5.08,50.83,50.83,0,0,0,5.75,22.09Zm1.22,2.32a65.56,65.56,0,0,0,14.06,17.51,65.38,65.38,0,0,0,18.61-12.91,65.34,65.34,0,0,0-11.58-19.16,67.85,67.85,0,0,1-21.06,14.55Zm3.65-31a54.08,54.08,0,0,1,17.41,12.58,52.25,52.25,0,0,0,7.76-11.28,31.64,31.64,0,0,0-25.15-1.29ZM65.62,293a57.22,57.22,0,0,0,13.19-3.45A54.85,54.85,0,0,1,73,269.11,31.87,31.87,0,0,0,65.65,293Zm2,8.29a31.55,31.55,0,0,0,8.85,12.4,56.39,56.39,0,0,0,17.35-4.17A68.58,68.58,0,0,1,80,291.88a60,60,0,0,1-14,3.69,32.17,32.17,0,0,0,1.74,5.74Zm40.59,18A59.75,59.75,0,0,1,96,311.4c-.64.27-1.27.55-1.91.8A59.94,59.94,0,0,1,79.54,316a31.73,31.73,0,0,0,28.75,3.37ZM127.93,282a55.5,55.5,0,0,1-9.91,14.1,59,59,0,0,1,3.24,14.07A31.79,31.79,0,0,0,128,282Z"/><path class="cls-1" d="M338.64,181.51a37.82,37.82,0,1,1-35.19-40.28A37.83,37.83,0,0,1,338.64,181.51Zm-2.87-.2a34.72,34.72,0,0,0-5.67-21.59,60.44,60.44,0,0,1-13.87,8,75.07,75.07,0,0,1,2.68,24.46,55.68,55.68,0,0,0,16.87-10.44A1.26,1.26,0,0,1,335.77,181.31Zm-34.08,32.58a34.69,34.69,0,0,0,9.85-1.65,61.61,61.61,0,0,0,4-15.84,75.1,75.1,0,0,1-22.94,3.77,61,61,0,0,0,9,13.72Zm-16.14-43.54A71.85,71.85,0,0,0,312.64,166c-2.87-8.82-7.22-16.37-12.73-21.92a34.67,34.67,0,0,0-9.58,1.63A55.83,55.83,0,0,0,285.55,170.35Zm.11,2.88a72.43,72.43,0,0,0,5.68,24.06,71.92,71.92,0,0,0,24.54-4,72.31,72.31,0,0,0-2.43-24.54A74.77,74.77,0,0,1,285.66,173.23ZM304,144.17a59.42,59.42,0,0,1,11.34,20.75,57.73,57.73,0,0,0,13.05-7.54A34.8,34.8,0,0,0,304,144.17Zm-36,23.24a63.2,63.2,0,0,0,14.73,2.82,60.43,60.43,0,0,1,3.88-23.09,35.07,35.07,0,0,0-18.64,20.27Zm-1.9,9.21A34.75,34.75,0,0,0,269,193.14a62,62,0,0,0,19.21,4.07,75.15,75.15,0,0,1-5.41-24.1,65.8,65.8,0,0,1-15.67-3,34.49,34.49,0,0,0-1.09,6.54Zm31.8,37.14a65.84,65.84,0,0,1-8.39-13.63,17.17,17.17,0,0,1-2.27-.1A65.67,65.67,0,0,1,271,196.88a34.89,34.89,0,0,0,26.88,16.88ZM335.1,186a61.39,61.39,0,0,1-16.53,9.31,65.61,65.61,0,0,1-3.44,15.52A35,35,0,0,0,335.1,186Z"/><path class="cls-1" d="M406,103.94a28.71,28.71,0,1,1-19.73-35.49h0A28.74,28.74,0,0,1,406,103.94Zm-2.11-.6A26.34,26.34,0,0,0,403,86.41a46,46,0,0,1-11.56,3.71,57.08,57.08,0,0,1-1.89,18.53,42,42,0,0,0,14.17-5,1.81,1.81,0,0,0,.09-.31ZM373.38,122.1a26.32,26.32,0,0,0,7.57.34,46.65,46.65,0,0,0,5.52-11.11,56.65,56.65,0,0,1-17.62-.85A46.21,46.21,0,0,0,373.38,122.1Zm-5.06-34.88a54.38,54.38,0,0,0,20.8,1,42,42,0,0,0-6-18.29,26,26,0,0,0-7.37-.31A42.32,42.32,0,0,0,368.32,87.22Zm-.38,2.16a54.73,54.73,0,0,0,.4,18.76,54.8,54.8,0,0,0,18.85.91,54.92,54.92,0,0,0,2.1-18.6A56.64,56.64,0,0,1,367.94,89.38Zm18.21-18.66a45.2,45.2,0,0,1,5.12,17.21,44.36,44.36,0,0,0,10.88-3.52A26.45,26.45,0,0,0,386.15,70.72ZM355.72,82.25a48.47,48.47,0,0,0,10.48,4.4,46,46,0,0,1,6.55-16.52A26.55,26.55,0,0,0,355.72,82.25Zm-2.87,6.53a26.33,26.33,0,0,0-.46,12.72A47.09,47.09,0,0,0,366,107.58a57,57,0,0,1-.19-18.75,50.18,50.18,0,0,1-11.16-4.69A25.65,25.65,0,0,0,352.85,88.78Zm17.69,32.62A50.21,50.21,0,0,1,366.48,110l-1.67-.44a50.16,50.16,0,0,1-11.56-4.92A26.51,26.51,0,0,0,370.54,121.4Zm32.08-14.66A46.69,46.69,0,0,1,388.87,111a50.06,50.06,0,0,1-5,11,26.63,26.63,0,0,0,18.75-15.28Z"/><path class="cls-1" d="M184.47,50a29.72,29.72,0,1,1-20.71-36.58A29.75,29.75,0,0,1,184.47,50Zm-2.18-.6a27.37,27.37,0,0,0-1-17.53,47.82,47.82,0,0,1-11.94,3.94,59.22,59.22,0,0,1-1.81,19.25A43.93,43.93,0,0,0,182.2,49.7ZM150.9,69.08a27.48,27.48,0,0,0,7.84.28,48.25,48.25,0,0,0,5.62-11.55,58.89,58.89,0,0,1-18.26-.73A48.27,48.27,0,0,0,150.9,69.08ZM145.37,33a56.45,56.45,0,0,0,21.55.92A43.52,43.52,0,0,0,160.6,15a27.17,27.17,0,0,0-7.64-.27A44,44,0,0,0,145.37,33ZM145,35.24a56.76,56.76,0,0,0,.56,19.41,56.73,56.73,0,0,0,19.53.78,57,57,0,0,0,2-19.27A58.67,58.67,0,0,1,145,35.24Zm18.7-19.47a46.83,46.83,0,0,1,5.4,17.77,45.54,45.54,0,0,0,11.24-3.73A27.38,27.38,0,0,0,163.7,15.77ZM132.28,28a50.55,50.55,0,0,0,10.89,4.51,47.66,47.66,0,0,1,6.65-17.17A27.62,27.62,0,0,0,132.28,28Zm-2.92,6.78A27.47,27.47,0,0,0,129,47.91,49.26,49.26,0,0,0,143.1,54.1a59.34,59.34,0,0,1-.31-19.45,52.31,52.31,0,0,1-11.59-4.77A27.82,27.82,0,0,0,129.36,34.73ZM148,68.37a52,52,0,0,1-4.3-11.83c-.58-.14-1.16-.28-1.73-.44a52.14,52.14,0,0,1-12-5,27.5,27.5,0,0,0,18,17.27ZM181,52.93a48.31,48.31,0,0,1-14.2,4.55,51.38,51.38,0,0,1-5.11,11.4A27.54,27.54,0,0,0,181,52.93Z"/></svg>