<svg id="Camada_1" data-name="Camada 1" xmlns="http://www.w3.org/2000/svg" viewBox="0 0 2138 603.03"><defs><style>.cls-1{fill:#b61346;}.cls-2{fill:#d51247;}</style></defs><rect class="cls-1" x="1846.13" y="-9.6" width="2" height="622.25" transform="translate(-10.65 528.38) rotate(-16.23)"/><rect class="cls-1" x="1420.02" y="-9.6" width="2" height="622.25" transform="translate(-27.64 409.27) rotate(-16.23)"/><rect class="cls-1" x="1633.07" y="-9.6" width="2" height="622.25" transform="translate(-19.14 468.83) rotate(-16.23)"/><rect class="cls-1" x="1952.66" y="-9.6" width="2" height="622.25" transform="translate(-6.4 558.14) rotate(-16.23)"/><rect class="cls-1" x="1526.55" y="-9.6" width="2" height="622.25" transform="translate(-23.39 439.02) rotate(-16.23)"/><rect class="cls-1" x="1739.6" y="-9.6" width="2" height="622.25" transform="translate(-14.9 498.58) rotate(-16.23)"/><rect class="cls-1" x="1899.4" y="-9.6" width="2" height="622.25" transform="translate(-8.52 543.28) rotate(-16.23)"/><rect class="cls-1" x="1473.29" y="-9.6" width="2" height="622.25" transform="translate(-25.51 424.16) rotate(-16.23)"/><rect class="cls-1" x="1686.34" y="-9.6" width="2" height="622.25" transform="translate(-17.02 483.72) rotate(-16.23)"/><rect class="cls-1" x="2005.89" y="-9.6" width="2" height="622.25" transform="translate(-4.28 573.05) rotate(-16.23)"/><rect class="cls-1" x="1579.82" y="-9.6" width="2" height="622.25" transform="translate(-21.26 453.94) rotate(-16.23)"/><rect class="cls-1" x="1792.86" y="-9.6" width="2" height="622.25" transform="translate(-12.77 513.5) rotate(-16.23)"/><rect class="cls-1" x="1366.76" y="-9.6" width="2" height="622.25" transform="translate(-29.76 394.38) rotate(-16.23)"/><rect class="cls-1" x="1872.77" y="-9.6" width="2" height="622.25" transform="translate(-9.58 535.83) rotate(-16.23)"/><rect class="cls-1" x="1446.65" y="-9.6" width="2" height="622.25" transform="translate(-26.57 416.71) rotate(-16.23)"/><rect class="cls-1" x="1659.71" y="-9.6" width="2" height="622.25" transform="translate(-18.08 476.27) rotate(-16.23)"/><rect class="cls-1" x="1979.29" y="-9.6" width="2" height="622.25" transform="translate(-5.34 565.61) rotate(-16.23)"/><rect class="cls-1" x="1553.18" y="-9.6" width="2" height="622.25" transform="translate(-22.33 446.49) rotate(-16.23)"/><rect class="cls-1" x="1766.24" y="-9.6" width="2" height="622.25" transform="translate(-13.83 506.05) rotate(-16.23)"/><rect class="cls-1" x="1926.03" y="-9.6" width="2" height="622.25" transform="translate(-7.47 550.69) rotate(-16.23)"/><rect class="cls-1" x="1499.91" y="-9.6" width="2" height="622.25" transform="translate(-24.45 431.6) rotate(-16.23)"/><rect class="cls-1" x="1712.98" y="-9.6" width="2" height="622.25" transform="translate(-15.96 491.16) rotate(-16.23)"/><rect class="cls-2" x="2030.58" y="-9.6" width="20" height="622.25" transform="translate(-2.94 582.43) rotate(-16.23)"/><rect class="cls-1" x="1606.45" y="-9.6" width="2" height="622.25" transform="translate(-20.2 461.38) rotate(-16.23)"/><rect class="cls-1" x="1819.49" y="-9.6" width="2" height="622.25" transform="translate(-11.71 520.94) rotate(-16.23)"/><rect class="cls-1" x="1393.39" y="-9.6" width="2" height="622.25" transform="translate(-28.7 401.82) rotate(-16.23)"/><rect class="cls-1" x="1127.07" y="-9.6" width="2" height="622.25" transform="translate(-39.32 327.36) rotate(-16.23)"/><rect class="cls-1" x="1340.12" y="-9.6" width="2" height="622.25" transform="translate(-30.82 386.91) rotate(-16.23)"/><rect class="cls-1" x="1233.6" y="-9.6" width="2" height="622.25" transform="translate(-35.07 357.15) rotate(-16.23)"/><rect class="cls-1" x="1180.34" y="-9.6" width="2" height="622.25" transform="translate(-37.19 342.26) rotate(-16.23)"/><rect class="cls-1" x="1286.86" y="-9.6" width="2" height="622.25" transform="translate(-32.94 372.04) rotate(-16.23)"/><rect class="cls-1" x="1073.81" y="-9.6" width="2" height="622.25" transform="translate(-41.44 312.48) rotate(-16.23)"/><rect class="cls-1" x="1153.71" y="-9.6" width="2" height="622.25" transform="matrix(0.96, -0.28, 0.28, 0.96, -38.25, 334.82)"/><rect class="cls-1" x="1260.23" y="-9.6" width="2" height="622.25" transform="translate(-34.01 364.6) rotate(-16.23)"/><rect class="cls-1" x="1206.97" y="-9.6" width="2" height="622.25" transform="translate(-36.13 349.71) rotate(-16.23)"/><rect class="cls-1" x="1313.49" y="-9.6" width="2" height="622.25" transform="translate(-31.88 379.47) rotate(-16.23)"/><rect class="cls-1" x="1100.44" y="-9.6" width="2" height="622.25" transform="translate(-40.38 319.91) rotate(-16.23)"/><rect class="cls-1" x="834.12" y="-9.6" width="2" height="622.25" transform="matrix(0.96, -0.28, 0.28, 0.96, -50.99, 245.48)"/><rect class="cls-1" x="1047.18" y="-9.6" width="2" height="622.25" transform="translate(-42.5 305.04) rotate(-16.23)"/><rect class="cls-1" x="940.65" y="-9.6" width="2" height="622.25" transform="translate(-46.75 275.26) rotate(-16.23)"/><rect class="cls-1" x="887.38" y="-9.6" width="2" height="622.25" transform="translate(-48.87 260.35) rotate(-16.23)"/><rect class="cls-1" x="993.91" y="-9.6" width="2" height="622.25" transform="matrix(0.96, -0.28, 0.28, 0.96, -44.62, 290.15)"/><rect class="cls-1" x="780.86" y="-9.6" width="2" height="622.25" transform="translate(-53.12 230.59) rotate(-16.23)"/><rect class="cls-1" x="860.75" y="-9.6" width="2" height="622.25" transform="matrix(0.96, -0.28, 0.28, 0.96, -49.93, 252.92)"/><rect class="cls-1" x="967.28" y="-9.6" width="2" height="622.25" transform="translate(-45.69 282.7) rotate(-16.23)"/><rect class="cls-1" x="914.01" y="-9.6" width="2" height="622.25" transform="translate(-47.81 267.8) rotate(-16.23)"/><rect class="cls-1" x="1020.54" y="-9.6" width="2" height="622.25" transform="matrix(0.96, -0.28, 0.28, 0.96, -43.56, 297.59)"/><rect class="cls-1" x="807.49" y="-9.6" width="2" height="622.25" transform="translate(-52.06 238.03) rotate(-16.23)"/><rect class="cls-1" x="727.59" y="-9.6" width="2" height="622.25" transform="translate(-55.24 215.7) rotate(-16.23)"/><rect class="cls-1" x="674.33" y="-9.6" width="2" height="622.25" transform="matrix(0.96, -0.28, 0.28, 0.96, -57.37, 200.81)"/><rect class="cls-1" x="754.23" y="-9.6" width="2" height="622.25" transform="translate(-54.18 223.15) rotate(-16.23)"/><rect class="cls-1" x="700.96" y="-9.6" width="2" height="622.25" transform="translate(-56.3 208.25) rotate(-16.23)"/><rect class="cls-1" x="434.64" y="-9.6" width="2" height="622.25" transform="translate(-66.92 133.8) rotate(-16.23)"/><rect class="cls-1" x="647.69" y="-9.6" width="2" height="622.25" transform="translate(-58.43 193.35) rotate(-16.23)"/><rect class="cls-1" x="541.17" y="-9.6" width="2" height="622.25" transform="translate(-62.67 163.58) rotate(-16.23)"/><rect class="cls-1" x="487.91" y="-9.6" width="2" height="622.25" transform="matrix(0.96, -0.28, 0.28, 0.96, -64.8, 148.69)"/><rect class="cls-1" x="594.44" y="-9.6" width="2" height="622.25" transform="translate(-60.55 178.48) rotate(-16.23)"/><rect class="cls-1" x="381.38" y="-9.6" width="2" height="622.25" transform="translate(-69.05 118.91) rotate(-16.23)"/><rect class="cls-1" x="461.28" y="-9.6" width="2" height="622.25" transform="translate(-65.86 141.25) rotate(-16.23)"/><rect class="cls-1" x="567.8" y="-9.6" width="2" height="622.25" transform="translate(-61.61 171.03) rotate(-16.23)"/><rect class="cls-1" x="514.54" y="-9.6" width="2" height="622.25" transform="matrix(0.96, -0.28, 0.28, 0.96, -63.74, 156.14)"/><rect class="cls-1" x="621.06" y="-9.6" width="2" height="622.25" transform="translate(-59.49 185.91) rotate(-16.23)"/><rect class="cls-1" x="408.01" y="-9.6" width="2" height="622.25" transform="translate(-67.98 126.35) rotate(-16.23)"/><rect class="cls-1" x="141.69" y="-9.6" width="2" height="622.25" transform="translate(-78.6 51.91) rotate(-16.23)"/><rect class="cls-1" x="354.75" y="-9.6" width="2" height="622.25" transform="translate(-70.11 111.47) rotate(-16.23)"/><rect class="cls-1" x="248.22" y="-9.6" width="2" height="622.25" transform="matrix(0.96, -0.28, 0.28, 0.96, -74.35, 81.69)"/><rect class="cls-1" x="194.95" y="-9.6" width="2" height="622.25" transform="translate(-76.47 66.79) rotate(-16.23)"/><rect class="cls-1" x="301.48" y="-9.6" width="2" height="622.25" transform="translate(-72.23 96.58) rotate(-16.23)"/><rect class="cls-1" x="88.43" y="-9.6" width="2" height="622.25" transform="matrix(0.96, -0.28, 0.28, 0.96, -80.72, 37.02)"/><rect class="cls-1" x="168.32" y="-9.6" width="2" height="622.25" transform="translate(-77.54 59.35) rotate(-16.23)"/><rect class="cls-1" x="274.85" y="-9.6" width="2" height="622.25" transform="matrix(0.96, -0.28, 0.28, 0.96, -73.29, 89.13)"/><rect class="cls-1" x="221.58" y="-9.6" width="2" height="622.25" transform="translate(-75.41 74.24) rotate(-16.23)"/><rect class="cls-1" x="328.12" y="-9.6" width="2" height="622.25" transform="matrix(0.96, -0.28, 0.28, 0.96, -71.17, 104.03)"/><rect class="cls-1" x="115.06" y="-9.6" width="2" height="622.25" transform="matrix(0.96, -0.28, 0.28, 0.96, -79.66, 44.46)"/></svg>