<?xml version="1.0" encoding="utf-8"?>
<!-- Generator: Adobe Illustrator 24.1.2, SVG Export Plug-In . SVG Version: 6.00 Build 0)  -->
<svg version="1.1" id="Camada_1" xmlns="http://www.w3.org/2000/svg" xmlns:xlink="http://www.w3.org/1999/xlink" x="0px" y="0px"
	 viewBox="0 0 216.3 266.7" style="enable-background:new 0 0 216.3 266.7;" xml:space="preserve">
<style type="text/css">
	.st0{enable-background:new    ;}
	.st1{fill:#FFEE00;}
	.st2{fill:#FFFFFF;}
</style>
<g id="Camada_1-2">
	<g class="st0">
		<g>
			<path class="st1" d="M86.7,227.6c-32.4,0-57.3-9.4-80.8-30.5l-1.8-1.6l36.6-42.6l1.9,1.5c16.4,13.1,30.1,19.2,43.3,19.2
				c12.4,0,20.3-5.8,20.3-14.9v-0.5c0-9-7.4-14.9-18.8-14.9c-10.3,0-17.7,4.2-26.2,10.9l-1.2,1l-39.5-19.6L26,37h135.9v53h-86
				l-0.9,16.6c9.9-5.4,20.1-7.9,31.8-7.9c31.4,0,63.2,20.6,63.2,59.8v0.5c0,20.9-8.3,38.5-24,50.7
				C131.1,221.4,110.6,227.6,86.7,227.6z M11.1,195c22,19.1,45.4,27.6,75.6,27.6c47.5,0,78.2-24.9,78.2-63.4v-0.5
				c0-37.7-30.2-54.8-58.2-54.8c-12.4,0-22.6,2.9-33.2,9.5l-4.1,2.5L71.1,85h85.8V42H30.7l-5,90.4l33.7,16.7
				c8.6-6.6,16.9-11,28.1-11c14.2,0,23.8,8,23.8,19.9v0.5c0,11.9-10.2,19.9-25.3,19.9c-13.9,0-28.1-6-44.6-18.8L11.1,195z"/>
		</g>
	</g>
	<g class="st0">
		<path class="st2" d="M118.5,168.8v-0.2c0-11.5,7.9-21,20.5-21s20.5,9.5,20.5,21v0.2c0,11.5-8.3,21-20.5,21
			S118.5,180.3,118.5,168.8z M188.4,148.8h16.2l-60.9,75h-16.2L188.4,148.8z M144.5,168.8v-0.2c0-4.5-2.6-7.4-5.6-7.4
			c-3.1,0-5.6,2.8-5.6,7.4v0.2c0,4.5,2.8,7.4,5.6,7.4S144.5,173.4,144.5,168.8z M172.6,204v-0.2c0-11.5,7.9-21,20.5-21
			c12.5,0,20.5,9.5,20.5,21v0.2c0,11.5-8.3,21-20.5,21C180.9,225,172.6,215.5,172.6,204z M198.7,204v-0.2c0-4.5-2.6-7.4-5.6-7.4
			c-3.1,0-5.6,2.8-5.6,7.4v0.2c0,4.5,2.8,7.4,5.6,7.4C195.9,211.4,198.7,208.6,198.7,204z"/>
	</g>
</g>
</svg>
