<svg id="Camada_1" data-name="Camada 1" xmlns="http://www.w3.org/2000/svg" viewBox="0 0 216.26 266.69"><defs><style>.cls-1{isolation:isolate;}.cls-2{fill:#fe0;}.cls-3{fill:#fff;}</style></defs><g id="Camada_1-2" data-name="Camada 1-2"><g class="cls-1"><path class="cls-2" d="M86.72,227.57c-32.4,0-57.32-9.4-80.81-30.48l-1.82-1.64,36.64-42.6,1.89,1.5C59,167.44,72.73,173.53,85.94,173.53c12.36,0,20.34-5.85,20.34-14.89v-.52c0-9-7.37-14.88-18.78-14.88-10.33,0-17.69,4.16-26.22,10.88l-1.24,1L20.56,135.5,26,37H161.88v53h-86l-.92,16.62A64.7,64.7,0,0,1,106.7,98.8c31.42,0,63.22,20.55,63.22,59.84v.52c0,20.93-8.3,38.46-24,50.69C131.05,221.44,110.58,227.57,86.72,227.57ZM11.09,195c22,19,45.4,27.58,75.63,27.58,47.5,0,78.2-24.89,78.2-63.41v-.52c0-37.68-30.18-54.84-58.22-54.84a59.55,59.55,0,0,0-33.19,9.48l-4.08,2.54,1.69-30.77h85.76V42H30.71l-5,90.45,33.7,16.73c8.64-6.63,16.86-11,28.06-11,14.22,0,23.78,8,23.78,19.88v.52c0,11.9-10.18,19.89-25.34,19.89-13.87,0-28.08-6-44.55-18.78Z"/></g><g class="cls-1"><path class="cls-3" d="M118.48,168.84v-.22c0-11.47,7.93-21,20.48-21s20.47,9.54,20.47,21v.22c0,11.47-8.25,21-20.47,21S118.48,180.31,118.48,168.84Zm69.9-20.05h16.19l-60.9,75.05H127.49Zm-43.85,20.05v-.22c0-4.5-2.57-7.39-5.57-7.39s-5.58,2.78-5.58,7.39v.22c0,4.5,2.79,7.39,5.58,7.39S144.53,173.45,144.53,168.84ZM172.62,204v-.21c0-11.47,7.93-21,20.48-21s20.47,9.55,20.47,21V204c0,11.47-8.25,21-20.47,21S172.62,215.47,172.62,204Zm26,0v-.21c0-4.51-2.57-7.4-5.57-7.4s-5.58,2.79-5.58,7.4V204c0,4.5,2.79,7.4,5.58,7.4S198.67,208.61,198.67,204Z"/></g></g></svg>